<svg width="40" height="41" viewBox="0 0 40 41" fill="none" xmlns="http://www.w3.org/2000/svg">
<path d="M22.9822 18.7874L13.7581 17.1624V29.1699C13.7582 29.3004 13.784 29.4295 13.834 29.55C13.884 29.6705 13.9573 29.7799 14.0496 29.8721C14.1419 29.9642 14.2515 30.0373 14.372 30.0871C14.4926 30.1369 14.6218 30.1625 14.7522 30.1624H30.6689C30.7995 30.1627 30.9288 30.1373 31.0496 30.0876C31.1703 30.0379 31.2801 29.9648 31.3726 29.8727C31.4651 29.7805 31.5385 29.671 31.5886 29.5504C31.6388 29.4298 31.6646 29.3005 31.6647 29.1699V24.7457L22.9822 18.7874Z" fill="#185C37"/>
<path d="M22.9822 8.49542H14.7522C14.6218 8.49531 14.4926 8.5209 14.372 8.57072C14.2515 8.62054 14.1419 8.69361 14.0496 8.78577C13.9573 8.87794 13.884 8.98738 13.834 9.10785C13.784 9.22833 13.7582 9.35748 13.7581 9.48792V13.9121L22.9822 19.3288L27.8664 20.9538L31.6647 19.3288V13.9121L22.9822 8.49542Z" fill="#21A366"/>
<path d="M13.7581 13.9121H22.9822V19.3288H13.7581V13.9121Z" fill="#107C41"/>
<path opacity="0.1" d="M20.3597 12.8287H13.7581V26.3703H20.3597C20.6228 26.369 20.8747 26.2641 21.061 26.0783C21.2472 25.8926 21.3528 25.6409 21.3547 25.3778V13.8212C21.3528 13.5581 21.2472 13.3064 21.061 13.1207C20.8747 12.9349 20.6228 12.83 20.3597 12.8287Z" fill="black"/>
<path opacity="0.2" d="M19.8172 13.3701H13.7581V26.9118H19.8172C20.0803 26.9105 20.3322 26.8056 20.5185 26.6198C20.7047 26.434 20.8103 26.1823 20.8122 25.9193V14.3626C20.8103 14.0996 20.7047 13.8479 20.5185 13.6621C20.3322 13.4763 20.0803 13.3714 19.8172 13.3701Z" fill="black"/>
<path opacity="0.2" d="M19.8172 13.3701H13.7581V25.8285H19.8172C20.0803 25.8271 20.3322 25.7222 20.5185 25.5365C20.7047 25.3507 20.8103 25.099 20.8122 24.836V14.3626C20.8103 14.0996 20.7047 13.8479 20.5185 13.6621C20.3322 13.4763 20.0803 13.3714 19.8172 13.3701Z" fill="black"/>
<path opacity="0.2" d="M19.2747 13.3701H13.7581V25.8285H19.2747C19.5378 25.8271 19.7897 25.7222 19.976 25.5365C20.1622 25.3507 20.2678 25.099 20.2697 24.836V14.3626C20.2678 14.0996 20.1622 13.8479 19.976 13.6621C19.7897 13.4763 19.5378 13.3714 19.2747 13.3701Z" fill="black"/>
<path d="M9.32825 13.3705H19.2766C19.5401 13.3703 19.7929 13.4747 19.9795 13.6608C20.1661 13.8469 20.2711 14.0995 20.2716 14.363V24.2947C20.2711 24.5582 20.1661 24.8107 19.9795 24.9969C19.7929 25.183 19.5401 25.2874 19.2766 25.2872H9.32825C9.19774 25.2874 9.06846 25.2619 8.9478 25.2121C8.82715 25.1623 8.71748 25.0893 8.62508 24.9971C8.53267 24.9049 8.45934 24.7954 8.40926 24.6749C8.35919 24.5544 8.33336 24.4252 8.33325 24.2947V14.363C8.33336 14.2325 8.35919 14.1033 8.40926 13.9827C8.45934 13.8622 8.53267 13.7527 8.62508 13.6605C8.71748 13.5684 8.82715 13.4953 8.9478 13.4455C9.06846 13.3958 9.19774 13.3703 9.32825 13.3705Z" fill="url(#paint0_linear_390_3072)"/>
<path d="M11.416 22.5562L13.5085 19.3195L11.5918 16.1012H13.131L14.1768 18.162C14.2735 18.357 14.3435 18.502 14.3752 18.5987H14.3893C14.4577 18.442 14.5302 18.2912 14.606 18.1437L15.7243 16.1045H17.141L15.1752 19.3045L17.191 22.5587H15.6835L14.4752 20.2995C14.4191 20.2024 14.3714 20.1006 14.3327 19.9954H14.3127C14.2774 20.0979 14.2305 20.1961 14.1727 20.2879L12.9285 22.5562H11.416Z" fill="white"/>
<path d="M30.6709 8.49542H22.9834V13.9121H31.6659V9.48792C31.6658 9.35741 31.64 9.22819 31.5899 9.10766C31.5398 8.98713 31.4665 8.87765 31.3741 8.78548C31.2817 8.69331 31.172 8.62025 31.0514 8.57048C30.9307 8.52071 30.8014 8.4952 30.6709 8.49542Z" fill="#33C481"/>
<path d="M22.9834 19.3287H31.6659V24.7454H22.9834V19.3287Z" fill="#107C41"/>
<defs>
<linearGradient id="paint0_linear_390_3072" x1="10.4116" y1="12.5905" x2="18.1933" y2="26.0672" gradientUnits="userSpaceOnUse">
<stop stop-color="#18884F"/>
<stop offset="0.5" stop-color="#117E43"/>
<stop offset="1" stop-color="#0B6631"/>
</linearGradient>
</defs>
</svg>
