<svg width="34" height="34" viewBox="0 0 34 34" fill="none" xmlns="http://www.w3.org/2000/svg">
<g clip-path="url(#clip0_288_2925)">
<path d="M8.89422 26.1407C6.63757 26.1407 4.63025 24.6958 3.90135 22.5447L3.85205 22.3826C3.68015 21.813 3.60814 21.3339 3.60814 20.8546V11.2437L0.18845 22.6588C-0.251368 24.3378 0.750871 26.0785 2.43245 26.5423L24.2295 32.3797C24.5016 32.4502 24.7736 32.484 25.0415 32.484C26.4454 32.484 27.7282 31.5522 28.0877 30.1791L29.3576 26.1407H8.89422Z" fill="#ECEFF1"/>
<path d="M33.9152 4.64357V20.8544C33.9152 22.6023 32.4914 24.026 30.7435 24.026H8.8943C8.75338 24.026 8.61245 24.0118 8.48546 23.9976C7.00546 23.8146 5.84965 22.6023 5.73685 21.1081C5.72266 21.0234 5.72266 20.9388 5.72266 20.8544V4.64357C5.72266 2.89565 7.14639 1.47192 8.8943 1.47192H30.7435C32.4914 1.47192 33.9152 2.89565 33.9152 4.64357Z" fill="#ECEFF1"/>
<path d="M15.5896 8.52026C15.5896 10.0772 14.3274 11.3396 12.7705 11.3396C11.2133 11.3396 9.95117 10.0772 9.95117 8.52026C9.95117 6.96334 11.2133 5.70093 12.7705 5.70093C14.3274 5.70093 15.5896 6.96334 15.5896 8.52026Z" fill="#FFC107"/>
<path d="M33.9151 16.8932V20.8544C33.9151 22.6023 32.4913 24.026 30.7434 24.026H8.8942C8.75327 24.026 8.61234 24.0118 8.48535 23.9976L23.0045 9.47873C23.9631 8.52011 25.5417 8.52011 26.5004 9.47873L33.9151 16.8932Z" fill="#388E3C"/>
<path d="M25.5423 24.0262H8.89476C8.75383 24.0262 8.6129 24.012 8.48591 23.9978C7.00591 23.8148 5.8501 22.6024 5.7373 21.1082L12.4329 14.4124C13.3915 13.454 14.9701 13.454 15.9288 14.4124L25.5423 24.0262Z" fill="#4CAF50"/>
</g>
<defs>
<clipPath id="clip0_288_2925">
<rect width="33.8301" height="33.8301" fill="white" transform="translate(0.0849609 0.0192871)"/>
</clipPath>
</defs>
</svg>
