<svg width="20" height="20" viewBox="0 0 20 20" fill="none" xmlns="http://www.w3.org/2000/svg">
<path d="M4.85714 7.78523V14.6424H15.1429V5.2138H13.4286V5.64237C13.4286 5.75603 13.3834 5.86504 13.303 5.94541C13.2227 6.02579 13.1137 6.07094 13 6.07094C12.8863 6.07094 12.7773 6.02579 12.697 5.94541C12.6166 5.86504 12.5714 5.75603 12.5714 5.64237V5.2138H7.42857V5.64237C7.42857 5.75603 7.38342 5.86504 7.30305 5.94541C7.22267 6.02579 7.11366 6.07094 7 6.07094C6.88634 6.07094 6.77733 6.02579 6.69695 5.94541C6.61658 5.86504 6.57143 5.75603 6.57143 5.64237V5.2138H4.85714V6.92808H15.1429V7.78523H4.85714ZM7.42857 4.35665H12.5714V3.92808C12.5714 3.81442 12.6166 3.70541 12.697 3.62504C12.7773 3.54466 12.8863 3.49951 13 3.49951C13.1137 3.49951 13.2227 3.54466 13.303 3.62504C13.3834 3.70541 13.4286 3.81442 13.4286 3.92808V4.35665H15.5714C15.6851 4.35665 15.7941 4.40181 15.8745 4.48218C15.9548 4.56255 16 4.67156 16 4.78523V15.0709C16 15.1846 15.9548 15.2936 15.8745 15.374C15.7941 15.4544 15.6851 15.4995 15.5714 15.4995H4.42857C4.31491 15.4995 4.2059 15.4544 4.12553 15.374C4.04515 15.2936 4 15.1846 4 15.0709V4.78523C4 4.67156 4.04515 4.56255 4.12553 4.48218C4.2059 4.40181 4.31491 4.35665 4.42857 4.35665H6.57143V3.92808C6.57143 3.81442 6.61658 3.70541 6.69695 3.62504C6.77733 3.54466 6.88634 3.49951 7 3.49951C7.11366 3.49951 7.22267 3.54466 7.30305 3.62504C7.38342 3.70541 7.42857 3.81442 7.42857 3.92808V4.35665ZM7 9.49951H7.85714C7.97081 9.49951 8.07982 9.54466 8.16019 9.62504C8.24056 9.70541 8.28571 9.81442 8.28571 9.92808C8.28571 10.0417 8.24056 10.1508 8.16019 10.2311C8.07982 10.3115 7.97081 10.3567 7.85714 10.3567H7C6.88634 10.3567 6.77733 10.3115 6.69695 10.2311C6.61658 10.1508 6.57143 10.0417 6.57143 9.92808C6.57143 9.81442 6.61658 9.70541 6.69695 9.62504C6.77733 9.54466 6.88634 9.49951 7 9.49951ZM7 12.0709H7.85714C7.97081 12.0709 8.07982 12.1161 8.16019 12.1965C8.24056 12.2768 8.28571 12.3858 8.28571 12.4995C8.28571 12.6132 8.24056 12.7222 8.16019 12.8026C8.07982 12.8829 7.97081 12.9281 7.85714 12.9281H7C6.88634 12.9281 6.77733 12.8829 6.69695 12.8026C6.61658 12.7222 6.57143 12.6132 6.57143 12.4995C6.57143 12.3858 6.61658 12.2768 6.69695 12.1965C6.77733 12.1161 6.88634 12.0709 7 12.0709ZM9.57143 9.49951H10.4286C10.5422 9.49951 10.6512 9.54466 10.7316 9.62504C10.812 9.70541 10.8571 9.81442 10.8571 9.92808C10.8571 10.0417 10.812 10.1508 10.7316 10.2311C10.6512 10.3115 10.5422 10.3567 10.4286 10.3567H9.57143C9.45776 10.3567 9.34876 10.3115 9.26838 10.2311C9.18801 10.1508 9.14286 10.0417 9.14286 9.92808C9.14286 9.81442 9.18801 9.70541 9.26838 9.62504C9.34876 9.54466 9.45776 9.49951 9.57143 9.49951ZM9.57143 12.0709H10.4286C10.5422 12.0709 10.6512 12.1161 10.7316 12.1965C10.812 12.2768 10.8571 12.3858 10.8571 12.4995C10.8571 12.6132 10.812 12.7222 10.7316 12.8026C10.6512 12.8829 10.5422 12.9281 10.4286 12.9281H9.57143C9.45776 12.9281 9.34876 12.8829 9.26838 12.8026C9.18801 12.7222 9.14286 12.6132 9.14286 12.4995C9.14286 12.3858 9.18801 12.2768 9.26838 12.1965C9.34876 12.1161 9.45776 12.0709 9.57143 12.0709ZM12.1429 9.49951H13C13.1137 9.49951 13.2227 9.54466 13.303 9.62504C13.3834 9.70541 13.4286 9.81442 13.4286 9.92808C13.4286 10.0417 13.3834 10.1508 13.303 10.2311C13.2227 10.3115 13.1137 10.3567 13 10.3567H12.1429C12.0292 10.3567 11.9202 10.3115 11.8398 10.2311C11.7594 10.1508 11.7143 10.0417 11.7143 9.92808C11.7143 9.81442 11.7594 9.70541 11.8398 9.62504C11.9202 9.54466 12.0292 9.49951 12.1429 9.49951ZM12.1429 12.0709H13C13.1137 12.0709 13.2227 12.1161 13.303 12.1965C13.3834 12.2768 13.4286 12.3858 13.4286 12.4995C13.4286 12.6132 13.3834 12.7222 13.303 12.8026C13.2227 12.8829 13.1137 12.9281 13 12.9281H12.1429C12.0292 12.9281 11.9202 12.8829 11.8398 12.8026C11.7594 12.7222 11.7143 12.6132 11.7143 12.4995C11.7143 12.3858 11.7594 12.2768 11.8398 12.1965C11.9202 12.1161 12.0292 12.0709 12.1429 12.0709Z" fill="#053132"/>
</svg>
