<svg width="14" height="14" viewBox="0 0 14 14" fill="none" xmlns="http://www.w3.org/2000/svg">
<path d="M6.35822 11.1544C6.35672 11.1544 6.35497 11.1544 6.35347 11.1544C6.29157 11.1532 6.23315 11.1267 6.19122 11.0813L1.91111 6.42725C1.83772 6.34737 1.83098 6.22705 1.89514 6.13943C1.95929 6.05206 2.07612 6.0221 2.17447 6.06804L6.09186 7.90229C6.12481 7.91777 6.16376 7.91028 6.18897 7.88407L12.1645 1.63867C12.2454 1.55404 12.3777 1.54481 12.4696 1.6177C12.5614 1.69059 12.5827 1.82139 12.5185 1.9195L6.57439 11.0254C6.5659 11.0386 6.55592 11.0506 6.54494 11.0618L6.51873 11.088C6.47604 11.1305 6.41813 11.1544 6.35822 11.1544Z" fill="current"/>
</svg>
