<svg width="20" height="20" viewBox="0 0 20 20" fill="none" xmlns="http://www.w3.org/2000/svg">
<path fill-rule="evenodd" clip-rule="evenodd" d="M7.47456 7.47472C7.71864 7.23065 8.11437 7.23065 8.35842 7.47472L9.99983 9.11616L11.6413 7.47474C11.8853 7.23066 12.281 7.23066 12.5251 7.47474C12.7692 7.71881 12.7692 8.11455 12.5251 8.35866L10.8838 10L12.5251 11.6413C12.7692 11.8854 12.7692 12.2812 12.5251 12.5252C12.281 12.7693 11.8853 12.7693 11.6412 12.5252L9.99983 10.8839L8.3585 12.5252C8.11439 12.7693 7.71865 12.7693 7.47458 12.5252C7.2305 12.2812 7.2305 11.8855 7.47458 11.6414L9.11592 10L7.47456 8.35858C7.23049 8.11453 7.23049 7.7188 7.47456 7.47472Z" fill="#053132"/>
<rect x="0.5" y="0.5" width="19" height="19" rx="3.5" stroke="#CDCDCD"/>
</svg>
