<svg width="15" height="16" viewBox="0 0 15 16" fill="none" xmlns="http://www.w3.org/2000/svg">
<g clip-path="url(#clip0_599_3181)">
<path d="M12.75 0.5H2.25C1.875 0.5 1.5 0.8 1.5 1.25V14.75C1.5 15.125 1.875 15.5 2.25 15.5H12.75C13.125 15.5 13.5 15.125 13.5 14.75V1.25C13.5 0.8 13.125 0.5 12.75 0.5ZM4.725 4.475C5.025 4.175 5.475 4.175 5.775 4.475L6.75 5.45L9.225 2.975C9.525 2.675 9.975 2.675 10.275 2.975C10.575 3.275 10.575 3.725 10.275 4.025L7.275 7.025C6.975 7.325 6.525 7.325 6.225 7.025L4.725 5.525C4.425 5.225 4.425 4.775 4.725 4.475ZM8.25 13.25H3.75C3.3 13.25 3 12.95 3 12.5C3 12.05 3.3 11.75 3.75 11.75H8.25C8.7 11.75 9 12.05 9 12.5C9 12.95 8.7 13.25 8.25 13.25ZM11.25 10.25H3.75C3.3 10.25 3 9.95 3 9.5C3 9.05 3.3 8.75 3.75 8.75H11.25C11.7 8.75 12 9.05 12 9.5C12 9.95 11.7 10.25 11.25 10.25Z" fill="white"/>
</g>
<defs>
<clipPath id="clip0_599_3181">
<rect width="15" height="15" fill="white" transform="translate(0 0.5)"/>
</clipPath>
</defs>
</svg>
