<svg width="30" height="30" viewBox="0 0 30 30" fill="none" xmlns="http://www.w3.org/2000/svg">
<path d="M28.5173 21.4898C28.3242 21.157 28.0201 20.9027 27.6584 20.7714C27.2968 20.6401 26.9004 20.6401 26.5387 20.7714L17.7043 23.2415L13.2934 24.4766C13.2113 24.4996 13.1236 24.4927 13.0461 24.4572C12.9685 24.4216 12.9061 24.3597 12.8699 24.2825C12.8475 24.2343 12.8355 24.1819 12.8346 24.1287C12.8341 24.0497 12.8598 23.9727 12.9077 23.9097C12.9556 23.8468 13.023 23.8015 13.0993 23.7809L17.2304 22.6366L18.9041 22.1728C19.3082 22.0612 19.6581 21.8069 19.889 21.457C20.1199 21.1072 20.2162 20.6854 20.1599 20.27C20.1035 19.8546 19.8985 19.4736 19.5828 19.1978C19.2671 18.922 18.862 18.7701 18.4428 18.7701C18.3771 18.7697 18.3115 18.7731 18.2462 18.7802L12.5927 19.4229C12.3936 19.3599 12.1944 19.2994 11.9953 19.2414C11.7886 19.181 11.5794 19.1255 11.3702 19.0776L11.34 19.0701C9.4896 18.5114 7.5664 18.2311 5.63353 18.2383C5.11683 18.2383 4.60517 18.2585 4.10359 18.2937L4.10107 17.472H1.26294V27.1458L2.96682 27.1181L4.1187 27.108L4.11618 26.0418L14.3873 29.6084C15.0007 29.8223 15.6739 29.7851 16.26 29.505C16.8146 29.2378 17.6514 28.8295 18.6419 28.343C21.4876 26.9467 25.5885 24.9101 27.8419 23.7683C28.0401 23.6675 28.2157 23.5274 28.3581 23.3565C28.5004 23.1856 28.6064 22.9875 28.6696 22.7743C28.7328 22.5611 28.7519 22.3372 28.7257 22.1163C28.6995 21.8955 28.6286 21.6823 28.5173 21.4898Z" fill="#053132"/>
<path d="M26.407 16.4965L25.7554 13.1356C25.7443 13.0717 25.7181 13.0113 25.6789 12.9595C25.6398 12.9078 25.5889 12.8661 25.5304 12.8379C25.146 12.6528 24.2601 12.2309 23.6648 12.02C23.5773 11.9895 23.4956 11.9443 23.4234 11.8864L22.7366 11.366V11.0778C23.0659 10.8097 23.3175 10.4585 23.4656 10.0606C23.637 10.0092 23.7872 9.9039 23.894 9.76036C24.0009 9.61681 24.0585 9.44264 24.0585 9.2637V8.76452C24.0584 8.66681 24.0297 8.57127 23.976 8.48965C23.9223 8.40803 23.8459 8.34388 23.7562 8.30509V7.45903C23.7579 7.20485 23.6998 6.95383 23.5867 6.72624C23.4735 6.49864 23.3083 6.30086 23.1046 6.14886C22.6558 5.83046 22.1141 5.67005 21.5643 5.6928C21.0987 5.71203 20.6497 5.87095 20.2757 6.14886C20.072 6.30086 19.9069 6.49864 19.7937 6.72624C19.6805 6.95383 19.6224 7.20485 19.6241 7.45903V8.30509C19.5345 8.34387 19.4581 8.40802 19.4044 8.48964C19.3506 8.57126 19.3219 8.6668 19.3218 8.76451V9.2637C19.3218 9.44231 19.3791 9.61619 19.4855 9.75968C19.5919 9.90317 19.7415 10.0087 19.9124 10.0606C20.0632 10.457 20.3144 10.8076 20.6413 11.0778V11.366L19.957 11.8864C19.885 11.9448 19.8033 11.99 19.7156 12.02C19.1484 12.2216 18.3163 12.6129 17.9062 12.8098C17.4984 12.6129 16.6663 12.2216 16.0991 12.02C16.0107 11.99 15.9282 11.9448 15.8554 11.8864L15.171 11.366V11.0778C15.4992 10.8082 15.7513 10.4576 15.9023 10.0606C16.0732 10.0087 16.2228 9.90317 16.3292 9.75968C16.4356 9.6162 16.4929 9.44231 16.4929 9.26371V8.76452C16.4928 8.66681 16.4641 8.57127 16.4103 8.48964C16.3566 8.40802 16.2802 8.34387 16.1906 8.30509V7.45903C16.1923 7.20485 16.1342 6.95383 16.021 6.72624C15.9078 6.49864 15.7427 6.30086 15.539 6.14886C15.1145 5.84228 14.6018 5.68198 14.0783 5.69211C13.5985 5.69776 13.1318 5.84904 12.7399 6.12591C12.7291 6.13346 12.7187 6.14156 12.7077 6.14886C12.5043 6.30099 12.3395 6.49886 12.2268 6.72646C12.114 6.95407 12.0563 7.20502 12.0585 7.45903V8.30509C11.9688 8.34387 11.8924 8.40802 11.8387 8.48964C11.785 8.57126 11.7563 8.6668 11.7562 8.76451V9.2637C11.7561 9.44231 11.8135 9.61619 11.9199 9.75968C12.0262 9.90317 12.1759 10.0087 12.3468 10.0606C12.4968 10.458 12.7491 10.8089 13.0781 11.0778V11.366L12.3913 11.8864C12.3191 11.9443 12.2374 11.9895 12.1499 12.02C11.5546 12.2309 10.6687 12.6528 10.2843 12.8379C10.2258 12.8664 10.1748 12.9081 10.1353 12.9598C10.0958 13.0115 10.069 13.0717 10.057 13.1356L9.41008 16.4895L9.4054 16.5153H9.47571L13.7741 16.5223H26.4116L26.407 16.4965Z" fill="#053132"/>
<path d="M16.0507 4.82629C16.167 5.12644 16.3363 5.40327 16.5504 5.64362C16.7087 5.83828 16.9071 5.99662 17.132 6.10791C17.3569 6.2192 17.6031 6.28084 17.8539 6.28866C18.1047 6.29647 18.3543 6.25028 18.5857 6.15321C18.8171 6.05613 19.0249 5.91045 19.195 5.72603C19.219 5.70076 19.2416 5.67551 19.2628 5.64894C19.4794 5.40763 19.6501 5.12885 19.7665 4.82629C19.9453 4.77223 20.1019 4.66222 20.2134 4.51245C20.3249 4.36268 20.3853 4.18107 20.3858 3.99437V3.47207C20.386 3.36973 20.3563 3.26956 20.3003 3.18387C20.2444 3.09817 20.1646 3.03067 20.0709 2.98964V2.10587C20.0728 1.83966 20.012 1.57674 19.8933 1.33844C19.7746 1.10015 19.6014 0.893191 19.3878 0.734365C19.0427 0.482177 18.6386 0.323 18.2142 0.272137C17.8628 0.229429 17.5063 0.260471 17.1676 0.363281C16.9027 0.44528 16.6532 0.57068 16.4294 0.734367C16.2161 0.893342 16.0433 1.1004 15.9251 1.33871C15.8069 1.57702 15.7465 1.83986 15.749 2.10587V2.98964C15.6548 3.03029 15.5745 3.09763 15.518 3.18336C15.4616 3.26908 15.4315 3.36944 15.4314 3.47207V3.99437C15.4319 4.18108 15.4924 4.36269 15.6039 4.51245C15.7153 4.66222 15.872 4.77223 16.0507 4.82629Z" fill="#053132"/>
</svg>
