<svg width="17" height="17" viewBox="0 0 17 17" fill="none" xmlns="http://www.w3.org/2000/svg">
<path d="M12.7939 15.1851H5.79395C5.19721 15.1851 4.62491 14.948 4.20296 14.526C3.781 14.1041 3.54395 13.5318 3.54395 12.9351V5.93506C3.54395 5.33832 3.781 4.76603 4.20296 4.34407C4.62491 3.92211 5.19721 3.68506 5.79395 3.68506H12.7939C13.3907 3.68506 13.963 3.92211 14.3849 4.34407C14.8069 4.76603 15.0439 5.33832 15.0439 5.93506V12.9351C15.0439 13.5318 14.8069 14.1041 14.3849 14.526C13.963 14.948 13.3907 15.1851 12.7939 15.1851Z" fill="#CDCDCD"/>
<path d="M5.04395 2.68506H12.4152C12.2596 2.2467 11.9722 1.86721 11.5925 1.59865C11.2127 1.33009 10.7591 1.18562 10.2939 1.18506H3.29395C2.69721 1.18506 2.12491 1.42211 1.70296 1.84407C1.281 2.26603 1.04395 2.83832 1.04395 3.43506V10.4351C1.04451 10.9002 1.18898 11.3538 1.45753 11.7336C1.72609 12.1134 2.10558 12.4007 2.54395 12.5563V5.18506C2.54395 4.52202 2.80734 3.88613 3.27618 3.41729C3.74502 2.94845 4.3809 2.68506 5.04395 2.68506Z" fill="#CDCDCD"/>
</svg>
