<svg width="20" height="20" viewBox="0 0 20 20" fill="none" xmlns="http://www.w3.org/2000/svg">
<g clip-path="url(#clip0_52_1792)">
<path d="M2.93066 12.3438H4.10254V13.5156H2.93066V12.3438Z" fill="#053031"/>
<path d="M15.8984 6.48431H17.0703V7.65619H15.8984V6.48431Z" fill="#053031"/>
<path d="M9.41406 7.07031V12.3438H7.03125V13.5156H10C10.3236 13.5156 10.5859 13.2533 10.5859 12.9297V7.65625H12.9687V6.48438H10C9.67641 6.48438 9.41406 6.74672 9.41406 7.07031Z" fill="current"/>
<path d="M6.44531 2.96869H0.585938C0.262344 2.96869 0 3.23103 0 3.55463V16.4453C0 16.7688 0.262344 17.0312 0.585938 17.0312H6.44531C6.76891 17.0312 7.03125 16.7688 7.03125 16.4453V13.5156H5.27344V14.1015C5.27344 14.4251 5.01109 14.6874 4.6875 14.6874H2.34375C2.02016 14.6874 1.75781 14.4251 1.75781 14.1015V11.7578C1.75781 11.4342 2.02016 11.1718 2.34375 11.1718H4.6875C5.01109 11.1718 5.27344 11.4342 5.27344 11.7578V12.3437H7.03125V3.55463C7.03125 3.23103 6.76891 2.96869 6.44531 2.96869ZM4.6875 9.99994H2.34375C2.02016 9.99994 1.75781 9.7376 1.75781 9.414C1.75781 9.09041 2.02016 8.82806 2.34375 8.82806H4.6875C5.01109 8.82806 5.27344 9.09041 5.27344 9.414C5.27344 9.7376 5.01109 9.99994 4.6875 9.99994ZM4.6875 7.65619H2.34375C2.02016 7.65619 1.75781 7.39385 1.75781 7.07025C1.75781 6.74666 2.02016 6.48431 2.34375 6.48431H4.6875C5.01109 6.48431 5.27344 6.74666 5.27344 7.07025C5.27344 7.39385 5.01109 7.65619 4.6875 7.65619Z" fill="current"/>
<path d="M19.415 2.96875H13.5557C13.2321 2.96875 12.9697 3.23109 12.9697 3.55469V6.48438H14.7275V5.89844C14.7275 5.57484 14.9899 5.3125 15.3135 5.3125H17.6572C17.9808 5.3125 18.2432 5.57484 18.2432 5.89844V8.24219C18.2432 8.56578 17.9808 8.82812 17.6572 8.82812H15.3135C14.9899 8.82812 14.7275 8.56578 14.7275 8.24219V7.65625H12.9697V16.4453C12.9697 16.7689 13.2321 17.0312 13.5557 17.0312H19.415C19.7386 17.0312 20.001 16.7689 20.001 16.4453V3.55469C20.001 3.23109 19.7386 2.96875 19.415 2.96875ZM17.6572 13.5156H15.3135C14.9899 13.5156 14.7275 13.2533 14.7275 12.9297C14.7275 12.6061 14.9899 12.3438 15.3135 12.3438H17.6572C17.9808 12.3438 18.2432 12.6061 18.2432 12.9297C18.2432 13.2533 17.9808 13.5156 17.6572 13.5156ZM17.6572 11.1719H15.3135C14.9899 11.1719 14.7275 10.9095 14.7275 10.5859C14.7275 10.2623 14.9899 10 15.3135 10H17.6572C17.9808 10 18.2432 10.2623 18.2432 10.5859C18.2432 10.9095 17.9808 11.1719 17.6572 11.1719Z" fill="current"/>
</g>
<defs>
<clipPath id="clip0_52_1792">
<rect width="20" height="20" fill="white"/>
</clipPath>
</defs>
</svg>
