<svg width="50" height="50" viewBox="0 0 50 50" fill="none" xmlns="http://www.w3.org/2000/svg">
<path d="M35.2024 12.1124H14.7969C13.3201 12.1124 12.1133 13.3192 12.1133 14.7961V29.8302C12.1133 31.3111 13.316 32.5138 14.7969 32.5138H21.5674L20.8515 34.6615H19.6283C18.7406 34.6615 18.0165 35.3856 18.0165 36.2733V37.3452C18.0165 37.6397 18.2578 37.8811 18.5524 37.8811H31.4387C31.7374 37.8811 31.9746 37.6397 31.9746 37.3452V36.2733C31.9746 35.3856 31.2506 34.6615 30.3628 34.6615H29.1396L28.4237 32.5138H35.1942C36.6751 32.5138 37.8778 31.3111 37.8778 29.8302V14.7961C37.886 13.3192 36.6792 12.1124 35.2024 12.1124ZM14.7969 13.1883H35.1983C36.086 13.1883 36.8101 13.9124 36.8101 14.8002V27.1506H13.1892V14.7961C13.1892 13.9083 13.9092 13.1883 14.7969 13.1883ZM30.9069 36.2733V36.8092H19.0924V36.2733C19.0924 35.9788 19.3337 35.7374 19.6283 35.7374H30.3669C30.6656 35.7374 30.9069 35.9788 30.9069 36.2733ZM28.0146 34.6615H21.9846L22.7006 32.5138H27.2946L28.0146 34.6615ZM35.2024 31.442H14.7969C13.9092 31.442 13.1851 30.7179 13.1851 29.8302V28.2183H36.8101V29.8302C36.8101 30.7179 36.0901 31.442 35.2024 31.442Z" fill="current"/>
<path d="M26.0723 29.2939H23.9246C23.6259 29.2939 23.3887 29.5353 23.3887 29.8299C23.3887 30.1244 23.63 30.3658 23.9246 30.3658H26.0723C26.3709 30.3658 26.6082 30.1244 26.6082 29.8299C26.6123 29.5353 26.3709 29.2939 26.0723 29.2939Z" fill="current"/>
<path d="M34.8219 18.4C34.9283 18.5064 35.0633 18.5554 35.2024 18.5554C35.3414 18.5554 35.4764 18.5023 35.5828 18.4C35.7914 18.1914 35.7914 17.8518 35.5828 17.6391L32.3633 14.4195C32.1546 14.2109 31.8151 14.2109 31.6024 14.4195C31.3896 14.6282 31.3937 14.9677 31.6024 15.1804L34.8219 18.4Z" fill="current"/>
<path d="M33.7457 20.5478C33.852 20.6542 33.987 20.7033 34.1261 20.7033C34.2652 20.7033 34.4002 20.6501 34.5066 20.5478C34.7152 20.3392 34.7152 19.9996 34.5066 19.7869L29.6752 14.9555C29.4666 14.7469 29.127 14.7469 28.9143 14.9555C28.7057 15.1642 28.7057 15.5037 28.9143 15.7165L33.7457 20.5478Z" fill="current"/>
</svg>
