<svg width="20" height="20" viewBox="0 0 20 20" fill="none" xmlns="http://www.w3.org/2000/svg">
<path d="M9.80174 3.50855C9.83905 3.4882 9.88415 3.4882 9.92145 3.50855L17.188 7.47214C17.2282 7.49405 17.2532 7.53614 17.2532 7.58188V12.6934C17.2532 12.7624 17.1972 12.8184 17.1282 12.8184H16.1706C16.1016 12.8184 16.0456 12.7624 16.0456 12.6934V8.5398C16.0456 8.3311 15.8223 8.19846 15.639 8.29833L14.6815 8.8202C14.5931 8.86837 14.5381 8.961 14.5381 9.06167V12.8969C14.5381 12.9426 14.5131 12.9847 14.4729 13.0066L9.92148 15.4904C9.88416 15.5108 9.83904 15.5108 9.80172 15.4904L5.25026 13.0066C5.21012 12.9847 5.18514 12.9426 5.18514 12.8969V9.06167C5.18514 8.961 5.13013 8.86837 5.04174 8.8202L2.753 7.57284C2.66611 7.52548 2.66609 7.40073 2.75296 7.35334L9.80174 3.50855ZM14.2049 7.70457C14.396 7.60034 14.396 7.32596 14.2049 7.22173L9.99328 4.92449C9.9112 4.87972 9.812 4.87972 9.72991 4.92449L5.5183 7.22173C5.32721 7.32596 5.32721 7.60034 5.5183 7.70457L9.72991 10.0018C9.812 10.0466 9.9112 10.0466 9.99328 10.0018L14.2049 7.70457ZM13.1869 12.3373C13.2754 12.2892 13.3305 12.1965 13.3305 12.0957V10.0198C13.3305 9.81104 13.107 9.67841 12.9237 9.77847L9.9215 11.4177C9.88417 11.4381 9.83903 11.4381 9.8017 11.4177L6.79948 9.77847C6.61623 9.67841 6.3927 9.81104 6.3927 10.0198V12.0957C6.3927 12.1965 6.44779 12.2892 6.53629 12.3373L9.73019 14.0748C9.81212 14.1194 9.91107 14.1194 9.99301 14.0748L13.1869 12.3373Z" fill="#053132" stroke="white" stroke-width="0.15"/>
</svg>
