<svg width="184" height="65" viewBox="0 0 184 65" fill="none" xmlns="http://www.w3.org/2000/svg">
<rect y="0.5" width="184" height="64" rx="8" fill="#FAFAFA"/>
<rect x="31.8636" y="9.72705" width="105.545" height="6.54545" rx="3.27273" fill="#E7E7E7"/>
<rect x="142.318" y="9.72705" width="9.81818" height="6.54545" rx="3.27273" fill="#E7E7E7"/>
<rect x="12" y="23.2725" width="160" height="32" rx="16" fill="white"/>
<g opacity="0.2">
<path d="M46.1205 47.6819C41.8404 47.6819 37.2228 44.9972 37.2228 39.1063C37.2228 33.2154 41.8404 30.5308 46.1205 30.5308C48.4983 30.5308 50.6921 31.3131 52.3182 32.7399C54.0824 34.3046 55.0182 36.5137 55.0182 39.1063C55.0182 41.6989 54.0824 43.8927 52.3182 45.4575C50.6921 46.8842 48.483 47.6819 46.1205 47.6819Z" fill="url(#paint0_radial_755_28848)"/>
<path d="M53.4673 34.0083C54.285 35.3276 54.7115 36.8985 54.7115 38.6459C54.7115 41.2385 53.7757 43.4322 52.0115 44.997C50.3853 46.4237 48.1762 47.2214 45.8137 47.2214C43.0432 47.2214 40.1376 46.0939 38.4225 43.7022C40.0732 46.4114 43.1782 47.6817 46.1206 47.6817C48.4831 47.6817 50.6921 46.8839 52.3183 45.4572C54.0825 43.8924 55.0183 41.6987 55.0183 39.1061C55.0183 37.1517 54.486 35.4151 53.4673 34.0083Z" fill="#EB8F00"/>
<path d="M41.871 37.388C41.9232 37.3895 41.9738 37.3941 42.0244 37.4033C42.0505 37.4003 42.0781 37.4064 42.1011 37.4187H42.3159C42.3772 37.4218 42.4401 37.4156 42.5 37.4033C42.5613 37.4033 42.6227 37.3727 42.6994 37.3727C42.7638 37.3619 42.8252 37.3404 42.8835 37.3113C43.0078 37.2745 43.1228 37.2116 43.221 37.1272C43.2701 37.0904 43.3176 37.049 43.3591 37.0045C43.3897 36.9585 43.4358 36.9124 43.4665 36.8664L43.5585 36.7283C43.5846 36.6854 43.6061 36.6394 43.6199 36.5903C43.6352 36.5443 43.6505 36.5136 43.6659 36.4676C43.6797 36.4277 43.7012 36.3924 43.7272 36.3602L43.7886 36.2374C43.9205 35.9506 44.258 35.8248 44.5449 35.9567C44.548 35.9582 44.5526 35.9598 44.5557 35.9613C44.7367 36.0503 44.8625 36.2221 44.8932 36.4215C44.8947 36.4875 44.8993 36.555 44.9085 36.621V36.8511C44.8993 36.9539 44.884 37.0566 44.8625 37.1579C44.8333 37.2791 44.7919 37.3972 44.7397 37.5107C44.6538 37.7209 44.528 37.9142 44.3716 38.0783L44.2949 38.1704L44.1875 38.2318C44.0617 38.3376 43.9282 38.4343 43.7886 38.5232C43.6459 38.5969 43.4971 38.6598 43.3437 38.7073L43.2363 38.738L43.129 38.7533C43.0584 38.7702 42.9863 38.781 42.9142 38.784C42.7761 38.7994 42.638 38.7994 42.5 38.784C42.3818 38.7779 42.2637 38.7626 42.1471 38.738C42.0428 38.7165 41.94 38.6858 41.8403 38.646C41.7989 38.6337 41.7575 38.6183 41.7176 38.5999C41.6869 38.5846 41.6716 38.5693 41.6409 38.5539C41.5933 38.5309 41.5473 38.5048 41.5028 38.4772C41.2282 38.3023 41.1469 37.9403 41.3187 37.6641C41.4399 37.4801 41.6501 37.3742 41.871 37.388Z" fill="#422B0D"/>
<path d="M50.1305 41.589C48.8495 41.2054 47.5179 41.0198 46.1817 41.0367C44.8271 41.0244 43.4787 41.2177 42.1823 41.612C41.7329 42.3437 41.4935 43.1844 41.4874 44.0435C41.4797 44.5835 41.9108 45.0269 42.4508 45.0345C42.6058 45.0361 42.7607 45.0023 42.8988 44.9333C43.9281 44.4516 45.0465 44.1908 46.1817 44.1662C47.3185 44.1877 48.4368 44.4501 49.4647 44.9333C49.9479 45.1726 50.5339 44.9762 50.7748 44.4915C50.8438 44.3519 50.8791 44.1985 50.876 44.0435C50.8668 43.1706 50.6076 42.3192 50.1305 41.589Z" fill="#422B0D"/>
<path d="M50.1305 41.5897C49.2039 40.1323 47.5762 39.7642 46.1817 39.7642C44.6661 39.7642 43.0675 40.1431 42.1824 41.6051C43.4787 41.2139 44.8271 41.0221 46.1817 41.0375C47.5179 41.0206 48.8495 41.2062 50.1305 41.5897Z" fill="white"/>
<path d="M46.1726 39.5347C46.7126 39.5393 47.2511 39.6068 47.7773 39.7341C48.3112 39.8614 48.8159 40.0869 49.2669 40.3999C49.7118 40.7236 50.0784 41.1439 50.3408 41.6272C50.6031 42.0981 50.7887 42.609 50.8869 43.1382C50.936 43.4021 50.9621 43.669 50.9621 43.9375C50.9682 44.0786 50.9529 44.2182 50.916 44.3548C50.8746 44.4929 50.8056 44.6202 50.7151 44.7306C50.531 44.9485 50.2656 45.0835 49.9803 45.1034C49.8407 45.1111 49.6995 45.0927 49.566 45.0497C49.4326 45.0006 49.3221 44.9408 49.2009 44.8963C48.2498 44.4576 47.2204 44.209 46.1726 44.1676C47.225 44.1692 48.2682 44.3778 49.2408 44.7813C49.3635 44.8288 49.4863 44.8886 49.5998 44.9255C49.7179 44.9577 49.8407 44.9684 49.9618 44.9577C50.2042 44.9331 50.4251 44.8119 50.5755 44.6202C50.6476 44.5266 50.6997 44.4177 50.7289 44.3026C50.7565 44.1845 50.7657 44.0618 50.755 43.9406C50.7442 43.6828 50.7105 43.4251 50.6553 43.1735C50.5433 42.675 50.3515 42.1979 50.0846 41.7622C49.8284 41.3296 49.4786 40.9598 49.0613 40.6791C48.6395 40.4091 48.1716 40.2189 47.6807 40.1207C47.1821 40.021 46.6743 39.9765 46.1665 39.9903L46.1726 39.5347Z" fill="#EB8F00"/>
<path d="M46.2109 39.9949C45.7031 39.9811 45.1953 40.0256 44.6983 40.1253C44.2074 40.2235 43.7395 40.4137 43.3176 40.6837C42.9003 40.9644 42.5506 41.3342 42.2944 41.7668C42.029 42.2025 41.8357 42.6796 41.7237 43.1781C41.6684 43.4297 41.6347 43.6875 41.624 43.9452C41.6132 44.0664 41.6224 44.1891 41.65 44.3072C41.6807 44.4223 41.7329 44.5297 41.8034 44.6248C41.9538 44.8165 42.1747 44.9377 42.4171 44.9623C42.5383 44.973 42.661 44.9623 42.7791 44.9301C42.8942 44.8932 43.0169 44.8334 43.1381 44.7859C44.1107 44.3824 45.1539 44.1738 46.2063 44.1722C45.16 44.2106 44.1307 44.4545 43.178 44.8902C43.0583 44.9423 42.9463 45.0022 42.8129 45.0436C42.6794 45.0865 42.5383 45.105 42.3987 45.0973C42.1118 45.0773 41.8464 44.9423 41.6623 44.723C41.5703 44.6125 41.5012 44.4852 41.4598 44.3471C41.423 44.2106 41.4077 44.071 41.4138 43.9298C41.4153 43.6614 41.4414 43.3944 41.489 43.1306C41.5902 42.6013 41.7758 42.092 42.0397 41.6226C42.302 41.1393 42.6687 40.719 43.1136 40.3953C43.5661 40.0839 44.0724 39.8599 44.6062 39.7341C45.1324 39.6068 45.6709 39.5393 46.2109 39.5347V39.9949Z" fill="#EB8F00"/>
<path d="M41.9968 34.745C41.6792 34.8769 41.7697 35.3586 42.1333 35.2957C42.9295 35.1316 43.6321 34.6698 44.0954 34.0025C44.2749 33.7617 44.413 33.4932 44.5035 33.2078C44.5633 33.0652 44.4958 32.8995 44.3516 32.8397C44.2074 32.7798 44.0433 32.8473 43.9834 32.9915L43.9712 33.0099C43.5293 33.7954 42.8329 34.406 41.9968 34.745Z" fill="#422B0D"/>
<path d="M50.4864 37.3865C50.4343 37.3881 50.3837 37.3927 50.333 37.4019C50.307 37.3988 50.2793 37.405 50.2563 37.4172H50.0416C49.9802 37.4203 49.9173 37.4142 49.8575 37.4019C49.7961 37.4019 49.7347 37.3712 49.658 37.3712C49.5936 37.3605 49.5322 37.339 49.4739 37.3098C49.3497 37.273 49.2346 37.2101 49.1364 37.1257C49.0874 37.0889 49.0398 37.0475 48.9984 37.003C48.9677 36.957 48.9217 36.911 48.891 36.865L48.7989 36.7269C48.7729 36.6839 48.7514 36.6379 48.7376 36.5888C48.7222 36.5428 48.7069 36.5121 48.6916 36.4661C48.6793 36.4277 48.6609 36.3909 48.6363 36.3587L48.575 36.236C48.443 35.9491 48.1055 35.8233 47.8187 35.9552C47.8156 35.9568 47.811 35.9583 47.8079 35.9598C47.6269 36.0488 47.5011 36.2206 47.4704 36.4201C47.4689 36.486 47.4643 36.5535 47.4551 36.6195V36.8496C47.4643 36.9524 47.4796 37.0552 47.5011 37.1564C47.5302 37.2776 47.5717 37.3957 47.6238 37.5093C47.7097 37.7194 47.8355 37.9127 47.992 38.0769L48.0687 38.1689L48.1761 38.2303C48.3019 38.3361 48.4354 38.4328 48.575 38.5218C48.7176 38.5954 48.8664 38.6583 49.0199 38.7059L49.1272 38.7365L49.2346 38.7519C49.3052 38.7688 49.3773 38.7795 49.4494 38.7826C49.5875 38.7979 49.7255 38.7979 49.8636 38.7826C49.9817 38.7764 50.0999 38.7611 50.2164 38.7365C50.3208 38.7151 50.4235 38.6844 50.5233 38.6445C50.5647 38.6322 50.6061 38.6169 50.646 38.5985C50.6767 38.5831 50.692 38.5678 50.7227 38.5525C50.7702 38.5294 50.8163 38.5034 50.8608 38.4757C51.1354 38.3009 51.2167 37.9388 51.0449 37.6627C50.9221 37.4755 50.7089 37.3697 50.4864 37.3865Z" fill="#422B0D"/>
<path d="M50.3607 34.7445C50.6783 34.8764 50.5878 35.3581 50.2242 35.2952C49.428 35.1311 48.7254 34.6693 48.2621 34.002C48.0826 33.7627 47.9445 33.4927 47.8555 33.2073C47.8049 33.0616 47.8816 32.9005 48.0289 32.8499C48.1624 32.8039 48.3096 32.8637 48.3725 32.991L48.3848 33.0094C48.8282 33.7949 49.5246 34.4055 50.3607 34.7445Z" fill="#422B0D"/>
</g>
<g style="mix-blend-mode:saturation">
<rect x="36.3636" y="29.4556" width="19.6364" height="19.6364" fill="#D9D9D9"/>
</g>
<g opacity="0.2">
<path d="M69.0296 47.6819C64.7495 47.6819 60.1318 44.9972 60.1318 39.1063C60.1318 33.2154 64.7495 30.5308 69.0296 30.5308C71.4074 30.5308 73.6012 31.3131 75.2273 32.7399C76.9915 34.3046 77.9273 36.5137 77.9273 39.1063C77.9273 41.6989 76.9915 43.8927 75.2273 45.4575C73.6012 46.8842 71.3921 47.6819 69.0296 47.6819Z" fill="url(#paint1_radial_755_28848)"/>
<path d="M76.3764 34.0083C77.194 35.3276 77.6205 36.8985 77.6205 38.6459C77.6205 41.2385 76.6847 43.4322 74.9205 44.997C73.2944 46.4237 71.0853 47.2214 68.7228 47.2214C65.9522 47.2214 63.0467 46.0939 61.3315 43.7022C62.9822 46.4114 66.0872 47.6817 69.0296 47.6817C71.3921 47.6817 73.6012 46.8839 75.2273 45.4572C76.9915 43.8924 77.9273 41.6987 77.9273 39.1061C77.9273 37.1517 77.395 35.4151 76.3764 34.0083Z" fill="#EB8F00"/>
<path d="M66.0227 35.7358C65.3799 35.7358 64.7954 36.2789 64.7954 37.181C64.7954 38.083 65.3799 38.6245 66.0227 38.6245C66.667 38.6245 67.25 38.0815 67.25 37.181C67.25 36.2804 66.6731 35.7358 66.0227 35.7358Z" fill="#422B0D"/>
<path d="M65.969 36.3389C65.7511 36.2346 65.4888 36.3266 65.383 36.5445C65.3017 36.7147 65.3385 36.9188 65.475 37.0507C65.6929 37.155 65.9552 37.063 66.061 36.8451C66.1423 36.6749 66.1055 36.4708 65.969 36.3389Z" fill="#896024"/>
<path d="M71.9136 35.7358C71.2708 35.7358 70.6863 36.2789 70.6863 37.181C70.6863 38.083 71.2708 38.6245 71.9136 38.6245C72.5563 38.6245 73.1408 38.0815 73.1408 37.181C73.1408 36.2804 72.5563 35.7358 71.9136 35.7358Z" fill="#422B0D"/>
<path d="M71.8522 36.3389C71.6343 36.2346 71.372 36.3266 71.2661 36.5445C71.1848 36.7147 71.2217 36.9188 71.3582 37.0507C71.576 37.155 71.8384 37.063 71.9442 36.8451C72.0255 36.6749 71.9887 36.4708 71.8522 36.3389Z" fill="#896024"/>
<path d="M69.1185 41.4509C70.5099 41.4386 71.8415 42.0246 72.7727 43.0586C72.8433 43.1399 72.8601 43.255 72.8157 43.3531C72.7712 43.4529 72.673 43.5173 72.5641 43.5188C72.515 43.5188 72.4659 43.505 72.4229 43.4805C71.6835 43.0555 70.447 42.5278 69.1216 42.5278H69.1001C67.7762 42.5278 66.5382 43.0555 65.8003 43.4805C65.7573 43.505 65.7082 43.5188 65.6591 43.5188C65.5502 43.5173 65.4536 43.4529 65.4091 43.3531C65.363 43.255 65.3799 43.1399 65.452 43.0586C66.3832 42.0246 67.7133 41.4386 69.1047 41.4509" fill="#422B0D"/>
</g>
<g style="mix-blend-mode:saturation">
<rect x="59.2727" y="29.4556" width="19.6364" height="19.6364" fill="#D9D9D9"/>
</g>
<g opacity="0.2">
<path d="M91.9387 47.6819C87.6586 47.6819 83.041 44.9972 83.041 39.1063C83.041 33.2154 87.6586 30.5308 91.9387 30.5308C94.3166 30.5308 96.5103 31.3131 98.1365 32.7399C99.9007 34.3046 100.836 36.5137 100.836 39.1063C100.836 41.6989 99.9007 43.8927 98.1365 45.4575C96.5103 46.8842 94.3012 47.6819 91.9387 47.6819Z" fill="url(#paint2_radial_755_28848)"/>
<path d="M99.2856 34.0083C100.103 35.3276 100.53 36.8985 100.53 38.6459C100.53 41.2385 99.5939 43.4322 97.8297 44.997C96.2036 46.4237 93.9945 47.2214 91.632 47.2214C88.8614 47.2214 85.9558 46.0939 84.2407 43.7022C85.8914 46.4114 88.9964 47.6817 91.9388 47.6817C94.3013 47.6817 96.5104 46.8839 98.1365 45.4572C99.9007 43.8924 100.837 41.6987 100.837 39.1061C100.837 37.1517 100.304 35.4151 99.2856 34.0083Z" fill="#EB8F00"/>
<path d="M95.8354 42.9558H88.1649C87.8259 42.9558 87.5513 42.6812 87.5513 42.3422C87.5513 42.0031 87.8259 41.7285 88.1649 41.7285H95.8354C96.1744 41.7285 96.449 42.0031 96.449 42.3422C96.449 42.6812 96.1744 42.9558 95.8354 42.9558Z" fill="#422B0D"/>
<path d="M89.0348 36.5034C88.392 36.5034 87.8075 37.0465 87.8075 37.9485C87.8075 38.8506 88.392 39.3921 89.0348 39.3921C89.6776 39.3921 90.262 38.849 90.262 37.9485C90.262 37.048 89.6776 36.5034 89.0348 36.5034Z" fill="#422B0D"/>
<path d="M88.975 37.1074C88.7571 37.0031 88.4948 37.0952 88.3889 37.313C88.3076 37.4833 88.3445 37.6873 88.481 37.8193C88.6988 37.9236 88.9612 37.8315 89.067 37.6137C89.1483 37.4434 89.1115 37.2394 88.975 37.1074Z" fill="#896024"/>
<path d="M94.9149 36.5034C94.2721 36.5034 93.6876 37.0465 93.6876 37.9485C93.6876 38.8506 94.2721 39.3921 94.9149 39.3921C95.5577 39.3921 96.1422 38.849 96.1422 37.9485C96.1422 37.048 95.5607 36.5034 94.9149 36.5034Z" fill="#422B0D"/>
<path d="M94.8581 37.1074C94.6403 37.0031 94.378 37.0952 94.2721 37.313C94.1908 37.4833 94.2276 37.6873 94.3642 37.8193C94.582 37.9236 94.8443 37.8315 94.9502 37.6137C95.0315 37.4434 94.9947 37.2394 94.8581 37.1074Z" fill="#896024"/>
</g>
<g style="mix-blend-mode:saturation">
<rect x="82.1819" y="29.4556" width="19.6364" height="19.6364" fill="#D9D9D9"/>
</g>
<g opacity="0.2" clip-path="url(#clip0_755_28848)">
<path d="M114.848 47.6819C110.568 47.6819 105.95 44.9972 105.95 39.1063C105.95 33.2154 110.568 30.5308 114.848 30.5308C117.226 30.5308 119.419 31.3131 121.046 32.7399C122.81 34.3046 123.746 36.5137 123.746 39.1063C123.746 41.6989 122.81 43.8927 121.046 45.4575C119.419 46.8842 117.21 47.6819 114.848 47.6819Z" fill="url(#paint3_radial_755_28848)"/>
<path d="M111.841 35.7358C111.198 35.7358 110.614 36.2789 110.614 37.181C110.614 38.083 111.198 38.6245 111.841 38.6245C112.485 38.6245 113.068 38.0815 113.068 37.181C113.068 36.2804 112.491 35.7358 111.841 35.7358Z" fill="#422B0D"/>
<path d="M111.787 36.3379C111.569 36.2336 111.307 36.3256 111.201 36.5435C111.12 36.7138 111.157 36.9178 111.293 37.0497C111.511 37.154 111.773 37.062 111.879 36.8442C111.961 36.6739 111.924 36.4698 111.787 36.3379Z" fill="#896024"/>
<path d="M117.732 35.7358C117.089 35.7358 116.505 36.2789 116.505 37.181C116.505 38.083 117.089 38.6245 117.732 38.6245C118.375 38.6245 118.959 38.0815 118.959 37.181C118.959 36.2804 118.375 35.7358 117.732 35.7358Z" fill="#422B0D"/>
<path d="M117.671 36.3379C117.453 36.2336 117.19 36.3256 117.085 36.5435C117.003 36.7138 117.04 36.9178 117.177 37.0497C117.394 37.154 117.657 37.062 117.763 36.8442C117.844 36.6739 117.807 36.4698 117.671 36.3379Z" fill="#896024"/>
<path d="M114.756 43.5089C113.364 43.5196 112.036 42.9351 111.105 41.9011C111.034 41.8198 111.017 41.7048 111.062 41.6066C111.106 41.5069 111.204 41.4425 111.313 41.4409C111.362 41.4409 111.411 41.4547 111.454 41.4793C112.194 41.9042 113.43 42.4319 114.756 42.4319H114.777C116.101 42.4319 117.339 41.9042 118.077 41.4793C118.12 41.4547 118.169 41.4409 118.218 41.4409C118.327 41.4425 118.425 41.5069 118.47 41.6066C118.516 41.7048 118.499 41.8198 118.427 41.9011C117.496 42.9351 116.164 43.5211 114.773 43.5089" fill="#422B0D"/>
<path d="M122.194 34.0073C123.012 35.3266 123.439 36.8976 123.439 38.6449C123.439 41.2375 122.503 43.4312 120.739 44.996C119.112 46.4227 116.903 47.2205 114.541 47.2205C111.77 47.2205 108.865 46.0929 107.15 43.7012C108.8 46.4104 111.905 47.6807 114.848 47.6807C117.21 47.6807 119.419 46.8829 121.045 45.4562C122.81 43.8915 123.745 41.6977 123.745 39.1051C123.745 37.1507 123.213 35.4141 122.194 34.0073Z" fill="#EB8F00"/>
</g>
<g style="mix-blend-mode:saturation">
<rect x="105.091" y="29.4556" width="19.6364" height="19.6364" fill="#D9D9D9"/>
</g>
<path d="M137.699 47.6819C133.418 47.6819 128.801 44.9972 128.801 39.1063C128.801 33.2154 133.418 30.5308 137.699 30.5308C140.076 30.5308 142.27 31.3131 143.896 32.7399C145.66 34.3046 146.596 36.5137 146.596 39.1063C146.596 41.6989 145.66 43.8927 143.896 45.4575C142.267 46.8842 140.061 47.6819 137.699 47.6819Z" fill="url(#paint4_radial_755_28848)"/>
<path d="M134.75 35.7368C134.107 35.7368 133.523 36.2799 133.523 37.1819C133.523 38.084 134.107 38.6255 134.75 38.6255C135.394 38.6255 135.977 38.0824 135.977 37.1819C135.977 36.2814 135.4 35.7368 134.75 35.7368Z" fill="#422B0D"/>
<path d="M134.696 36.3399C134.478 36.2355 134.216 36.3276 134.11 36.5454C134.029 36.7157 134.066 36.9198 134.202 37.0517C134.42 37.156 134.682 37.064 134.788 36.8461C134.87 36.6758 134.833 36.4718 134.696 36.3399Z" fill="#896024"/>
<path d="M140.641 35.7368C139.998 35.7368 139.414 36.2799 139.414 37.1819C139.414 38.084 139.998 38.6255 140.641 38.6255C141.284 38.6255 141.868 38.0824 141.868 37.1819C141.868 36.2814 141.284 35.7368 140.641 35.7368Z" fill="#422B0D"/>
<path d="M140.58 36.3399C140.362 36.2355 140.099 36.3276 139.994 36.5454C139.912 36.7157 139.949 36.9198 140.086 37.0517C140.303 37.156 140.566 37.064 140.672 36.8461C140.753 36.6758 140.716 36.4718 140.58 36.3399Z" fill="#896024"/>
<path d="M145.104 34.0083C145.921 35.3276 146.348 36.8985 146.348 38.6459C146.348 41.2385 145.412 43.4322 143.648 44.997C142.022 46.4237 139.812 47.2214 137.45 47.2214C134.679 47.2214 131.774 46.0939 130.059 43.7022C131.709 46.4114 134.814 47.6817 137.757 47.6817C140.119 47.6817 142.328 46.8839 143.955 45.4572C145.719 43.8924 146.655 41.6987 146.655 39.1061C146.655 37.1517 146.122 35.4151 145.104 34.0083Z" fill="#EB8F00"/>
<path d="M143.658 40.4439C143.444 40.0558 142.977 39.8855 142.563 40.0419C140.989 40.5006 139.357 40.7292 137.717 40.7215C136.077 40.7292 134.445 40.5006 132.871 40.0419C132.458 39.8855 131.992 40.0542 131.777 40.4408C131.568 40.8259 131.719 41.2723 131.895 41.6573C132.88 43.8204 135.051 45.1152 137.705 45.1229H137.729C140.383 45.1229 142.554 43.8204 143.54 41.6573C143.715 41.2692 143.867 40.8289 143.658 40.4439Z" fill="#422B0D"/>
<path d="M140.173 44.5119C140.116 44.4597 140.058 44.4122 140 44.3585C139.374 43.8077 138.564 43.5116 137.729 43.5285C136.87 43.5147 136.034 43.8 135.364 44.337C135.305 44.3845 135.244 44.4306 135.187 44.4904C135.13 44.5502 135.1 44.5932 135.063 44.6438C135.907 44.9736 136.806 45.1424 137.712 45.1378H137.737C138.605 45.1378 139.466 44.9828 140.279 44.6775C140.248 44.6193 140.213 44.564 140.173 44.5119Z" fill="#ED7770"/>
<path d="M142.563 40.0426C140.989 40.5013 139.357 40.7299 137.717 40.7222C136.077 40.7299 134.445 40.5013 132.871 40.0426C132.458 39.8861 131.992 40.0549 131.777 40.4415C131.746 40.4998 131.722 40.5611 131.706 40.624C131.757 40.6501 131.815 40.6762 131.884 40.7038C133.731 41.6288 135.773 42.0983 137.838 42.0737C139.819 42.0967 141.776 41.6657 143.565 40.8158C143.637 40.7851 143.697 40.7559 143.75 40.7283C143.738 40.6286 143.706 40.5304 143.658 40.4415C143.444 40.0549 142.977 39.8846 142.563 40.0426Z" fill="white"/>
<path d="M143.665 40.4454C143.447 40.0573 142.979 39.8855 142.562 40.0419C140.988 40.5006 139.355 40.7292 137.717 40.7215C136.077 40.7292 134.445 40.5006 132.871 40.0419C132.458 39.8855 131.992 40.0542 131.777 40.4408C131.568 40.8259 131.719 41.2723 131.895 41.6573C131.973 41.8307 132.061 42.001 132.157 42.1651C132.157 42.1651 131.835 40.9716 132.114 40.6249C132.21 40.4776 132.369 40.3856 132.544 40.3764C132.616 40.3764 132.687 40.3886 132.756 40.4101C134.357 40.8811 136.019 41.1189 137.689 41.1158H137.743C139.414 41.1189 141.075 40.8811 142.677 40.4101C142.746 40.3886 142.816 40.3764 142.888 40.3764C143.063 40.3856 143.224 40.4776 143.319 40.6249C143.603 40.9716 143.277 42.1697 143.277 42.1697C143.372 42.0056 143.467 41.8368 143.547 41.6619C143.721 41.2769 143.873 40.832 143.665 40.4454Z" fill="#EB8F00"/>
<defs>
<radialGradient id="paint0_radial_755_28848" cx="0" cy="0" r="1" gradientUnits="userSpaceOnUse" gradientTransform="translate(46.1205 39.1063) scale(8.73814)">
<stop offset="0.5" stop-color="#FDE030"/>
<stop offset="0.92" stop-color="#F7C02B"/>
<stop offset="1" stop-color="#F4A223"/>
</radialGradient>
<radialGradient id="paint1_radial_755_28848" cx="0" cy="0" r="1" gradientUnits="userSpaceOnUse" gradientTransform="translate(69.0296 39.1063) scale(8.73814)">
<stop offset="0.5" stop-color="#FDE030"/>
<stop offset="0.92" stop-color="#F7C02B"/>
<stop offset="1" stop-color="#F4A223"/>
</radialGradient>
<radialGradient id="paint2_radial_755_28848" cx="0" cy="0" r="1" gradientUnits="userSpaceOnUse" gradientTransform="translate(91.9387 39.1063) scale(8.73814)">
<stop offset="0.5" stop-color="#FDE030"/>
<stop offset="0.92" stop-color="#F7C02B"/>
<stop offset="1" stop-color="#F4A223"/>
</radialGradient>
<radialGradient id="paint3_radial_755_28848" cx="0" cy="0" r="1" gradientUnits="userSpaceOnUse" gradientTransform="translate(114.848 39.1063) scale(8.73814)">
<stop offset="0.5" stop-color="#FDE030"/>
<stop offset="0.92" stop-color="#F7C02B"/>
<stop offset="1" stop-color="#F4A223"/>
</radialGradient>
<radialGradient id="paint4_radial_755_28848" cx="0" cy="0" r="1" gradientUnits="userSpaceOnUse" gradientTransform="translate(137.699 39.1063) scale(8.73814)">
<stop offset="0.5" stop-color="#FDE030"/>
<stop offset="0.92" stop-color="#F7C02B"/>
<stop offset="1" stop-color="#F4A223"/>
</radialGradient>
<clipPath id="clip0_755_28848">
<rect width="19.6364" height="19.6364" fill="white" transform="translate(105.091 29.4556)"/>
</clipPath>
</defs>
</svg>
