<svg width="28" height="28" viewBox="0 0 28 28" fill="none" xmlns="http://www.w3.org/2000/svg">
<path d="M16.9825 13.2L7.7583 11.575V23.5825C7.75841 23.7129 7.78421 23.842 7.83423 23.9625C7.88425 24.083 7.95751 24.1924 8.04983 24.2846C8.14215 24.3768 8.25171 24.4498 8.37227 24.4997C8.49283 24.5495 8.62202 24.5751 8.75247 24.575H24.6691C24.7997 24.5753 24.9291 24.5499 25.0498 24.5001C25.1706 24.4504 25.2804 24.3774 25.3728 24.2852C25.4653 24.193 25.5388 24.0835 25.5889 23.9629C25.639 23.8423 25.6649 23.713 25.665 23.5825V19.1583L16.9825 13.2Z" fill="#185C37"/>
<path d="M16.9825 2.90796H8.75247C8.62202 2.90785 8.49283 2.93343 8.37227 2.98325C8.25171 3.03307 8.14215 3.10615 8.04983 3.19831C7.95751 3.29047 7.88425 3.39992 7.83423 3.52039C7.78421 3.64087 7.75841 3.77001 7.7583 3.90046V8.32463L16.9825 13.7413L21.8666 15.3663L25.665 13.7413V8.32463L16.9825 2.90796Z" fill="#21A366"/>
<path d="M7.7583 8.32458H16.9825V13.7413H7.7583V8.32458Z" fill="#107C41"/>
<path opacity="0.1" d="M14.36 7.24097H7.7583V20.7826H14.36C14.623 20.7813 14.875 20.6764 15.0612 20.4906C15.2475 20.3049 15.353 20.0532 15.355 19.7901V8.23347C15.353 7.97042 15.2475 7.71874 15.0612 7.53296C14.875 7.34718 14.623 7.24227 14.36 7.24097Z" fill="black"/>
<path opacity="0.2" d="M13.8175 7.78259H7.7583V21.3243H13.8175C14.0805 21.323 14.3325 21.218 14.5187 21.0323C14.705 20.8465 14.8105 20.5948 14.8125 20.3318V8.77509C14.8105 8.51204 14.705 8.26036 14.5187 8.07458C14.3325 7.88881 14.0805 7.7839 13.8175 7.78259Z" fill="black"/>
<path opacity="0.2" d="M13.8175 7.78259H7.7583V20.2409H13.8175C14.0805 20.2396 14.3325 20.1347 14.5187 19.9489C14.705 19.7632 14.8105 19.5115 14.8125 19.2484V8.77509C14.8105 8.51204 14.705 8.26036 14.5187 8.07458C14.3325 7.88881 14.0805 7.7839 13.8175 7.78259Z" fill="black"/>
<path opacity="0.2" d="M13.275 7.78259H7.7583V20.2409H13.275C13.538 20.2396 13.79 20.1347 13.9762 19.9489C14.1625 19.7632 14.268 19.5115 14.27 19.2484V8.77509C14.268 8.51204 14.1625 8.26036 13.9762 8.07458C13.79 7.88881 13.538 7.7839 13.275 7.78259Z" fill="black"/>
<path d="M3.3285 7.78296H13.2768C13.5404 7.78274 13.7932 7.88715 13.9798 8.07326C14.1663 8.25937 14.2714 8.51194 14.2718 8.77546V18.7071C14.2714 18.9707 14.1663 19.2232 13.9798 19.4093C13.7932 19.5954 13.5404 19.6998 13.2768 19.6996H3.3285C3.19798 19.6998 3.0687 19.6743 2.94804 19.6246C2.82739 19.5748 2.71773 19.5017 2.62532 19.4096C2.53292 19.3174 2.45958 19.2079 2.40951 19.0874C2.35943 18.9669 2.33361 18.8376 2.3335 18.7071V8.77546C2.33361 8.64494 2.35943 8.51573 2.40951 8.3952C2.45958 8.27467 2.53292 8.16519 2.62532 8.07302C2.71773 7.98084 2.82739 7.90778 2.94804 7.85801C3.0687 7.80825 3.19798 7.78274 3.3285 7.78296Z" fill="url(#paint0_linear_726_5903)"/>
<path d="M5.41602 16.9687L7.50852 13.732L5.59185 10.5137H7.13102L8.17685 12.5745C8.27352 12.7695 8.34352 12.9145 8.37518 13.0112H8.38935C8.45768 12.8545 8.53018 12.7037 8.60602 12.5562L9.72435 10.517H11.141L9.17518 13.717L11.191 16.9712H9.68352L8.47518 14.712C8.41908 14.6149 8.3714 14.5131 8.33268 14.4078H8.31268C8.27745 14.5104 8.23047 14.6086 8.17268 14.7003L6.92852 16.9687H5.41602Z" fill="white"/>
<path d="M24.6709 2.90796H16.9834V8.32463H25.6659V3.90046C25.6658 3.76994 25.64 3.64073 25.5899 3.5202C25.5398 3.39967 25.4665 3.29019 25.3741 3.19802C25.2817 3.10584 25.172 3.03278 25.0514 2.98301C24.9307 2.93325 24.8014 2.90774 24.6709 2.90796Z" fill="#33C481"/>
<path d="M16.9834 13.7412H25.6659V19.1579H16.9834V13.7412Z" fill="#107C41"/>
<defs>
<linearGradient id="paint0_linear_726_5903" x1="4.41183" y1="7.00296" x2="12.1935" y2="20.4796" gradientUnits="userSpaceOnUse">
<stop stop-color="#18884F"/>
<stop offset="0.5" stop-color="#117E43"/>
<stop offset="1" stop-color="#0B6631"/>
</linearGradient>
</defs>
</svg>
