<svg width="17" height="16" viewBox="0 0 17 16" fill="none" xmlns="http://www.w3.org/2000/svg">
<path d="M8.5 6C9.29565 6 10.0587 5.68393 10.6213 5.12132C11.1839 4.55871 11.5 3.79565 11.5 3C11.5 2.86739 11.4473 2.74021 11.3536 2.64645C11.2598 2.55268 11.1326 2.5 11 2.5H6C5.86739 2.5 5.74021 2.55268 5.64645 2.64645C5.55268 2.74021 5.5 2.86739 5.5 3C5.5 3.79565 5.81607 4.55871 6.37868 5.12132C6.94129 5.68393 7.70435 6 8.5 6ZM2.5 14.5C2.49996 14.5657 2.51287 14.6307 2.53798 14.6914C2.5631 14.7521 2.59993 14.8072 2.64636 14.8536C2.6928 14.9001 2.74793 14.9369 2.80861 14.962C2.86929 14.9871 2.93433 15 3 15H14C14.1326 15 14.2598 14.9473 14.3536 14.8536C14.4473 14.7598 14.5 14.6326 14.5 14.5C14.5 14.3674 14.4473 14.2402 14.3536 14.1464C14.2598 14.0527 14.1326 14 14 14H13V13.2002C13 11.0781 12.0117 9.34519 10.4204 8.67725C10.2855 8.62266 10.17 8.52904 10.0887 8.40838C10.0073 8.28772 9.96385 8.14551 9.96385 8C9.96385 7.85448 10.0073 7.71227 10.0887 7.59161C10.17 7.47095 10.2855 7.37733 10.4204 7.32274C12.0117 6.65478 13 4.92188 13 2.7998V2H14C14.1326 2 14.2598 1.94732 14.3536 1.85355C14.4473 1.75979 14.5 1.63261 14.5 1.5C14.5 1.36739 14.4473 1.24021 14.3536 1.14645C14.2598 1.05268 14.1326 1 14 1H3C2.86739 1 2.74021 1.05268 2.64645 1.14645C2.55268 1.24021 2.5 1.36739 2.5 1.5C2.5 1.63261 2.55268 1.75979 2.64645 1.85355C2.74021 1.94732 2.86739 2 3 2H4V2.7998C4 4.92188 4.98828 6.6548 6.57959 7.32275C6.71448 7.37734 6.83001 7.47096 6.91135 7.59162C6.99269 7.71228 7.03615 7.85449 7.03615 8C7.03615 8.14552 6.99269 8.28773 6.91135 8.40839C6.83001 8.52905 6.71448 8.62267 6.57959 8.67725C4.98828 9.34521 4 11.0781 4 13.2002V14H3C2.93433 14 2.86929 14.0129 2.80861 14.038C2.74793 14.0631 2.6928 14.0999 2.64636 14.1464C2.59993 14.1928 2.5631 14.2479 2.53798 14.3086C2.51287 14.3693 2.49996 14.4343 2.5 14.5ZM5 14V13.2002C5 11.4883 5.75342 10.1084 6.96631 9.59912C7.2829 9.46841 7.55356 9.24667 7.74402 8.96199C7.93447 8.67731 8.03613 8.34251 8.03613 8C8.03613 7.65749 7.93447 7.32269 7.74402 7.03801C7.55356 6.75333 7.2829 6.53159 6.96631 6.40088C5.75342 5.8916 5 4.51172 5 2.7998V2H12V2.7998C12 4.51172 11.2466 5.8916 10.0337 6.40088C9.7171 6.53159 9.44644 6.75333 9.25598 7.03801C9.06553 7.32269 8.96387 7.65749 8.96387 8C8.96387 8.34251 9.06553 8.67731 9.25598 8.96199C9.44644 9.24667 9.7171 9.46841 10.0337 9.59912C11.2466 10.1084 12 11.4883 12 13.2002V14H5Z" fill="current"/>
</svg>
