<svg width="218" height="132" viewBox="0 0 218 132" fill="none" xmlns="http://www.w3.org/2000/svg">
<path d="M1 8C1 3.85786 4.35786 0.5 8.5 0.5H209.5C213.642 0.5 217 3.85786 217 8V128C217 129.933 215.433 131.5 213.5 131.5H4.49999C2.567 131.5 1 129.933 1 128V8Z" fill="#FAFAFA"/>
<path d="M53.552 42.5564C53.552 36.6378 58.2461 31.74 64.3663 31.74C93.5475 31.74 117.014 31.74 143.746 31.74C149.663 31.74 154.563 36.4361 154.563 42.5564V99.4885H53.552C53.552 95.4077 53.552 45.209 53.552 42.5564Z" fill="white"/>
<path d="M117.096 61.4232C117.096 64.1938 116.118 66.9643 114.651 69.0834C112.206 65.6599 108.295 63.5423 103.895 63.5423C106.665 63.5423 108.948 61.26 108.948 58.4895C108.948 55.7189 106.665 53.4382 103.895 53.4382C101.124 53.4382 98.8435 55.7189 98.8435 58.4895C98.8435 61.26 101.124 63.5423 103.895 63.5423C99.4933 63.5423 95.42 65.8231 93.1392 69.0834C91.6715 66.9643 90.6952 64.357 90.6952 61.4232C90.6952 54.0896 96.5612 48.222 103.895 48.222C111.229 48.222 117.096 54.0896 117.096 61.4232Z" fill="#E4E4E4"/>
<path d="M114.65 69.0835C112.206 72.5054 108.295 74.6229 103.895 74.6229C99.4932 74.6229 95.4198 72.3422 93.139 69.0835C95.5831 65.6599 99.4932 63.5424 103.895 63.5424C108.295 63.5424 112.37 65.6599 114.65 69.0835Z" fill="white"/>
<path d="M114.65 70.0704C114.324 70.0704 113.999 69.9342 113.836 69.6618C111.553 66.9426 107.807 65.3106 103.895 65.3106C99.9831 65.3106 96.2346 66.9426 93.9539 69.6618C93.6273 70.0704 92.9759 70.0704 92.4877 69.798C91.998 69.5269 91.998 68.9833 92.3229 68.5747C94.9318 65.4455 99.3317 63.5424 103.895 63.5424C108.458 63.5424 112.858 65.4455 115.465 68.5747C115.792 68.9833 115.628 69.5269 115.302 69.798C115.14 70.0704 114.977 70.0704 114.65 70.0704Z" fill="#CDCDCD"/>
<path d="M93.9538 68.4304C96.2346 71.6907 99.9831 73.6466 103.895 73.6466C107.807 73.6466 111.553 71.6907 113.836 68.4304C115.302 66.3129 116.118 63.8673 116.118 61.4232C116.118 54.7426 110.575 49.2015 103.895 49.2015C97.2125 49.2015 91.6715 54.7426 91.6715 61.4232C91.6715 64.0321 92.4877 66.4746 93.9538 68.4304ZM103.895 75.7641C99.3316 75.7641 94.9318 73.4833 92.3229 69.7349C90.6951 67.2892 89.7156 64.5187 89.7156 61.5865C89.7156 53.763 96.0713 47.2456 104.058 47.2456C112.043 47.2456 118.399 53.6014 118.399 61.5865C118.399 64.5187 117.421 67.4541 115.792 69.7349C112.858 73.4833 108.458 75.7641 103.895 75.7641Z" fill="#CDCDCD"/>
<path d="M103.895 53.2749C106.665 53.2749 108.948 55.5573 108.948 58.3262C108.948 61.0968 106.665 63.3792 103.895 63.3792C101.124 63.3792 98.8434 61.0968 98.8434 58.3262C98.8434 55.5573 101.124 53.2749 103.895 53.2749Z" fill="white"/>
<path d="M103.895 54.5793C101.612 54.5793 99.8212 56.372 99.8212 58.6527C99.8212 60.9351 101.612 62.7277 103.895 62.7277C106.175 62.7277 107.97 60.9351 107.97 58.6527C107.97 56.5352 106.175 54.5793 103.895 54.5793ZM103.895 64.8452C100.471 64.8452 97.702 62.0763 97.702 58.6527C97.702 55.2308 100.471 52.4602 103.895 52.4602C107.316 52.4602 110.087 55.2308 110.087 58.6527C110.087 62.0763 107.316 64.8452 103.895 64.8452Z" fill="#CDCDCD"/>
<path d="M135.175 117.242C138.033 117.242 140.276 119.489 140.276 122.346C140.276 125.202 138.033 127.447 135.175 127.447C132.319 127.447 130.073 125.202 130.073 122.346C130.073 119.489 132.319 117.242 135.175 117.242Z" fill="white"/>
<path d="M43.4916 12.8683C45.928 12.8683 47.935 14.8752 47.935 17.3131C47.935 19.7509 45.928 21.7578 43.4916 21.7578C41.0538 21.7578 39.0469 19.7509 39.0469 17.3131C39.0469 14.8752 40.9107 12.8683 43.4916 12.8683Z" fill="white"/>
<path d="M161.907 99.4885C161.907 105.815 156.806 110.916 150.48 110.916H57.429C51.103 110.916 46.0015 105.815 46.0015 99.4885C50.2861 99.4885 158.234 99.4885 161.907 99.4885Z" fill="#E4E4E4"/>
<path d="M171.652 53.2749C172.667 53.2749 173.49 54.0959 173.49 55.1106C173.49 56.1253 172.667 56.9483 171.652 56.9483C170.64 56.9483 169.817 56.1253 169.817 55.1106C169.817 54.0959 170.64 53.2749 171.652 53.2749Z" fill="#CDCDCD"/>
<path d="M156.194 11.5395C157.209 11.5395 158.03 12.3625 158.03 13.3751C158.03 14.3898 157.209 15.2128 156.194 15.2128C155.179 15.2128 154.356 14.3898 154.356 13.3751C154.356 12.3625 155.179 11.5395 156.194 11.5395Z" fill="#CDCDCD"/>
<path d="M148.36 118.466C149.375 118.466 150.196 119.291 150.196 120.304C150.196 121.317 149.375 122.142 148.36 122.142C147.346 122.142 146.523 121.317 146.523 120.304C146.523 119.291 147.346 118.466 148.36 118.466Z" fill="#CDCDCD"/>
<path d="M124.361 19.09C125.375 19.09 126.196 19.911 126.196 20.9256C126.196 21.9403 125.375 22.7613 124.361 22.7613C123.346 22.7613 122.523 21.9403 122.523 20.9256C122.523 19.911 123.346 19.09 124.361 19.09Z" fill="#CDCDCD"/>
<path d="M105.69 118.468C106.705 118.468 107.526 119.289 107.526 120.304C107.526 121.319 106.705 122.14 105.69 122.14C104.675 122.14 103.852 121.319 103.852 120.304C103.852 119.289 104.675 118.468 105.69 118.468Z" fill="#CDCDCD"/>
<path d="M42.7354 36.7104C43.7501 36.7104 44.5731 37.5334 44.5731 38.5481C44.5731 39.5628 43.7501 40.3838 42.7354 40.3838C41.7208 40.3838 40.8977 39.5628 40.8977 38.5481C40.8977 37.5334 41.7208 36.7104 42.7354 36.7104Z" fill="#CDCDCD"/>
<path d="M59.2644 118.468C60.2791 118.468 61.1021 119.289 61.1021 120.304C61.1021 121.319 60.2791 122.14 59.2644 122.14C58.2497 122.14 57.4287 121.319 57.4287 120.304C57.4287 119.289 58.2497 118.468 59.2644 118.468Z" fill="#CDCDCD"/>
<path d="M26.2121 54.1877C27.2268 54.1877 28.0498 55.0128 28.0498 56.0274C28.0498 57.0421 27.2268 57.8631 26.2121 57.8631C25.1975 57.8631 24.3765 57.0421 24.3765 56.0274C24.3765 55.0128 25.1975 54.1877 26.2121 54.1877Z" fill="#CDCDCD"/>
<path d="M150.479 112.143H57.4288C50.4895 112.143 44.573 106.428 44.573 99.2868C44.573 98.6735 45.1842 98.0603 45.7975 98.0603H53.5517C54.1629 98.0603 54.7761 98.6735 54.7761 99.2868C54.7761 99.898 54.1629 100.509 53.5517 100.509H47.2257C47.8369 105.613 52.1215 109.488 57.4288 109.488H150.479C153.132 109.488 155.787 108.469 157.622 106.428C159.254 104.794 160.275 102.756 160.479 100.509H154.153C153.542 100.509 152.928 99.898 152.928 99.2868C152.928 98.6735 153.542 98.0603 154.153 98.0603H161.907C162.518 98.0603 163.131 98.6735 163.131 99.2868C163.131 102.756 161.703 105.815 159.458 108.263C157.215 110.916 153.949 112.143 150.479 112.143Z" fill="#CDCDCD"/>
<path d="M54.7761 98.2661H152.928V42.5563C152.928 37.251 148.644 33.1682 143.542 33.1682H64.3659C59.0606 33.1682 54.9798 37.4548 54.9798 42.5563V98.2661H54.7761ZM154.356 100.715H53.5516C52.9384 100.715 52.3271 100.102 52.3271 99.4885V42.5563C52.3271 36.0266 57.6324 30.5175 64.3659 30.5175H143.746C150.276 30.5175 155.787 35.8228 155.787 42.5563V99.4885C155.581 100.102 154.97 100.715 154.356 100.715Z" fill="#CDCDCD"/>
<path d="M140.276 90.5099H53.5516C52.9384 90.5099 52.3271 89.8987 52.3271 89.2875C52.3271 88.6742 52.9384 88.061 53.5516 88.061H140.276C140.889 88.061 141.501 88.6742 141.501 89.2875C141.501 89.8987 141.093 90.5099 140.276 90.5099Z" fill="#CDCDCD"/>
<path d="M43.4917 13.7286C41.4848 13.7286 39.9073 15.3061 39.9073 17.313C39.9073 19.32 41.4848 20.8974 43.4917 20.8974C45.4986 20.8974 47.0761 19.32 47.0761 17.313C47.0761 15.3061 45.3555 13.7286 43.4917 13.7286ZM43.4917 22.7612C40.4813 22.7612 38.0435 20.3234 38.0435 17.313C38.0435 14.3026 40.4813 11.8648 43.4917 11.8648C46.5021 11.8648 48.9399 14.3026 48.9399 17.313C48.9399 20.3234 46.359 22.7612 43.4917 22.7612Z" fill="#CDCDCD"/>
<path d="M185.456 20.4836C189.18 20.4836 191.969 23.5085 191.969 26.9972C191.969 30.7212 188.947 33.5107 185.456 33.5107C181.967 33.5107 178.942 30.4859 178.942 26.9972C178.942 23.2755 181.734 20.4836 185.456 20.4836Z" fill="white"/>
<path d="M185.456 21.8795C182.665 21.8795 180.339 24.2053 180.339 26.9971C180.339 29.789 182.665 32.1148 185.456 32.1148C188.248 32.1148 190.576 29.789 190.576 26.9971C190.576 24.2053 188.248 21.8795 185.456 21.8795ZM185.456 34.9066C181.038 34.9066 177.547 31.4179 177.547 26.9971C177.547 22.5786 181.038 19.0899 185.456 19.0899C189.877 19.0899 193.366 22.5786 193.366 26.9971C193.366 31.4179 189.877 34.9066 185.456 34.9066Z" fill="#CDCDCD"/>
<path d="M1 8C1 3.85786 4.35786 0.5 8.5 0.5H209.5C213.642 0.5 217 3.85786 217 8V128C217 129.933 215.433 131.5 213.5 131.5H4.49999C2.567 131.5 1 129.933 1 128V8Z" stroke="#F2F4F7"/>
</svg>
