<svg width="24" height="24" viewBox="0 0 24 24" fill="none" xmlns="http://www.w3.org/2000/svg">
<path d="M13.0539 11.4402C12.9267 11.4402 12.7994 11.3917 12.7025 11.2946C11.9271 10.5192 10.6656 10.519 9.89008 11.2946C9.69619 11.4887 9.381 11.4887 9.18711 11.2946C8.99297 11.1004 8.99297 10.7857 9.18711 10.5916C10.3502 9.42825 12.2426 9.4285 13.4054 10.5916C13.5996 10.7857 13.5996 11.1004 13.4054 11.2946C13.3085 11.3917 13.181 11.4402 13.0539 11.4402Z" fill="current"/>
<path d="M12.7037 14.2754C11.9399 14.2754 11.176 13.9846 10.5946 13.4031C10.4004 13.209 10.4004 12.8943 10.5946 12.7002C10.7885 12.506 11.1037 12.506 11.2975 12.7002C12.0729 13.4755 13.3344 13.4757 14.1099 12.7002C14.3038 12.506 14.619 12.506 14.8129 12.7002C15.007 12.8943 15.007 13.209 14.8129 13.4031C14.2312 13.9846 13.4674 14.2754 12.7037 14.2754Z" fill="current"/>
<path d="M14.4612 13.5522C14.3339 13.5522 14.2067 13.5038 14.1097 13.4066C13.9156 13.2124 13.9156 12.8977 14.1097 12.7036L16.8868 9.92652C17.0807 9.73238 17.3959 9.73238 17.5898 9.92652C17.7839 10.1207 17.7839 10.4354 17.5898 10.6295L14.8127 13.4066C14.7157 13.5038 14.5885 13.5522 14.4612 13.5522Z" fill="current"/>
<path d="M10.2776 17.7347C10.1503 17.7347 10.0231 17.6862 9.92612 17.589C9.73198 17.3949 9.73198 17.0802 9.92612 16.886L11.4785 15.3337C11.6724 15.1395 11.9876 15.1395 12.1814 15.3337C12.3756 15.5278 12.3756 15.8425 12.1814 16.0367L10.6291 17.589C10.5321 17.6862 10.4049 17.7347 10.2776 17.7347Z" fill="current"/>
<path d="M6.76222 14.2182C6.63495 14.2182 6.50768 14.1697 6.41074 14.0725C6.2166 13.8784 6.2166 13.5637 6.41074 13.3696L9.18782 10.5927C9.38196 10.3986 9.6969 10.3986 9.89079 10.5927C10.0849 10.7869 10.0849 11.1016 9.89079 11.2957L7.11371 14.0725C7.01652 14.1695 6.88925 14.2182 6.76222 14.2182Z" fill="current"/>
<path d="M12.1697 8.80871C12.0424 8.80871 11.9154 8.76024 11.8182 8.66329C11.6241 8.46915 11.6241 8.15446 11.8182 7.96007L13.3706 6.40747C13.5647 6.21334 13.8794 6.21334 14.0738 6.40747C14.2679 6.60161 14.2679 6.91631 14.0738 7.11069L12.5214 8.66329C12.4242 8.75999 12.2967 8.80871 12.1697 8.80871Z" fill="current"/>
<path d="M8.51972 18.4476C7.75088 18.4476 6.98204 18.1617 6.41056 17.59C5.26712 16.4466 5.26712 14.5149 6.41056 13.3714C6.60445 13.1773 6.91964 13.1773 7.11353 13.3714C7.30767 13.5656 7.30767 13.8803 7.11353 14.0744C6.3514 14.8365 6.3514 16.1246 7.11353 16.8868C7.87566 17.6489 9.16378 17.6489 9.92591 16.8868C10.1198 16.6926 10.435 16.6926 10.6289 16.8868C10.823 17.0809 10.823 17.3956 10.6289 17.5897C10.0574 18.1617 9.28856 18.4476 8.51972 18.4476Z" fill="current"/>
<path d="M17.2375 10.7738C17.1103 10.7738 16.983 10.7253 16.886 10.6281C16.6919 10.434 16.6919 10.1193 16.886 9.92518C17.6482 9.16304 17.6482 7.87493 16.886 7.1128C16.1239 6.35067 14.8358 6.35067 14.0737 7.1128C13.8798 7.30694 13.5646 7.30694 13.3707 7.1128C13.1766 6.91866 13.1766 6.60397 13.3707 6.40983C14.5141 5.26638 16.4458 5.26638 17.5893 6.40983C18.7327 7.55327 18.7327 9.48495 17.5893 10.6284C17.4921 10.7253 17.3648 10.7738 17.2375 10.7738Z" fill="current"/>
</svg>
