<svg width="12" height="12" viewBox="0 0 12 12" fill="none" xmlns="http://www.w3.org/2000/svg">
<path d="M5.39133 11.6383L5.42196 11.6055L5.39132 11.6383C5.2626 11.5181 5.1009 11.3758 4.91283 11.2104L4.91207 11.2097L4.91112 11.2089C4.23422 10.6134 3.26273 9.75882 2.46054 8.71878C1.65818 7.67851 1.02138 6.44791 1.02138 5.10057C1.0214 3.77067 1.53937 2.52011 2.47978 1.57968C3.42016 0.639263 4.67072 0.121266 6.00064 0.121266C7.33056 0.121266 8.58115 0.639263 9.52153 1.57968C10.4619 2.52011 10.9799 3.77066 10.9799 5.10057C10.9799 6.44791 10.3431 7.67851 9.54076 8.71879C8.73853 9.75889 7.76699 10.6135 7.09008 11.209L7.08924 11.2097C6.90085 11.3754 6.73888 11.5179 6.60998 11.6383C6.43906 11.798 6.21972 11.8777 6.00066 11.8777C5.78156 11.8777 5.56227 11.798 5.39133 11.6383ZM5.42275 10.6292C5.61492 10.7983 5.78157 10.9449 5.9191 11.0733L6.08223 11.0734C6.08224 11.0733 6.08224 11.0733 6.08225 11.0733C6.21946 10.9451 6.38568 10.7989 6.5773 10.6303L6.57861 10.6292C7.21553 10.0689 8.12338 9.27017 8.87219 8.31795C9.62141 7.36519 10.2068 6.26444 10.2068 5.10059C10.2068 2.78135 8.31993 0.894451 6.00069 0.894451C3.68147 0.894451 1.79458 2.78135 1.79458 5.10059C1.79457 6.26444 2.37997 7.36519 3.12918 8.31795C3.87797 9.27018 4.78582 10.0689 5.42275 10.6292Z" fill="#2D7C7E" stroke="#2D7C7E" stroke-width="0.0897439"/>
<path d="M6.00027 2.69432C7.2241 2.69432 8.21968 3.68989 8.21968 4.91373C8.21968 6.13757 7.2241 7.13313 6.00027 7.13313C4.77644 7.13313 3.78088 6.13757 3.78088 4.91373C3.78088 3.68989 4.77644 2.69432 6.00027 2.69432ZM6.00027 6.35995C6.79769 6.35995 7.44652 5.71111 7.44652 4.91371C7.44652 4.1163 6.79769 3.46746 6.00027 3.46746C5.20284 3.46746 4.55404 4.1163 4.55404 4.91371C4.55404 5.71111 5.20284 6.35995 6.00027 6.35995Z" fill="#2D7C7E" stroke="#2D7C7E" stroke-width="0.0897439"/>
</svg>
