<svg width="20" height="20" viewBox="0 0 20 20" fill="none" xmlns="http://www.w3.org/2000/svg">
<path d="M9.90274 16.088C9.73769 15.9338 9.53772 15.7579 9.3071 15.555C8.54279 14.8827 7.45337 13.9242 6.55482 12.7815C5.65577 11.6382 4.95328 10.3173 4.9533 8.92066C4.9533 6.13757 7.21757 3.87329 10.0006 3.87329C12.7837 3.87329 15.048 6.13757 15.048 8.92066C15.048 10.3173 14.3455 11.6382 13.4464 12.7815C12.5479 13.9242 11.4584 14.8827 10.6941 15.555L10.6925 15.5565C10.4626 15.7587 10.2631 15.9341 10.0985 16.0879C10.0437 16.1391 9.95756 16.1391 9.90274 16.088ZM9.90274 16.088C9.90274 16.088 9.90273 16.088 9.90273 16.0879L9.86599 16.1273L9.90274 16.088ZM9.2694 16.7659L9.30615 16.7266L9.26939 16.7659C9.11489 16.6216 8.9208 16.4509 8.69506 16.2523L8.69429 16.2516L8.69315 16.2506C7.88087 15.5361 6.71508 14.5105 5.75246 13.2625C4.78962 12.0142 4.02546 10.5374 4.02546 8.92063C4.02548 7.32475 4.64705 5.82408 5.77553 4.69556C6.90399 3.56706 8.40467 2.94547 10.0006 2.94547C11.5965 2.94547 13.0972 3.56706 14.2256 4.69556C15.3541 5.82408 15.9757 7.32475 15.9757 8.92063C15.9757 10.5374 15.2116 12.0142 14.2487 13.2625C13.286 14.5106 12.1202 15.5362 11.3079 16.2507L11.3069 16.2516C11.0808 16.4505 10.8865 16.6215 10.7318 16.7659C10.5267 16.9575 10.2635 17.0532 10.0006 17.0532C9.73768 17.0532 9.47453 16.9575 9.2694 16.7659Z" fill="#053132" stroke="#053132" stroke-width="0.107693"/>
<path d="M10.0004 6.03319C11.469 6.03319 12.6637 7.22787 12.6637 8.69648C12.6637 10.1651 11.469 11.3598 10.0004 11.3598C8.53182 11.3598 7.33715 10.1651 7.33715 8.69648C7.33715 7.22787 8.53182 6.03319 10.0004 6.03319ZM10.0004 10.4319C10.9573 10.4319 11.7359 9.65334 11.7359 8.69645C11.7359 7.73956 10.9573 6.96096 10.0004 6.96096C9.04351 6.96096 8.26494 7.73956 8.26494 8.69645C8.26494 9.65334 9.04351 10.4319 10.0004 10.4319Z" fill="#053132" stroke="#053132" stroke-width="0.107693"/>
</svg>
