<svg width="24" height="24" viewBox="0 0 24 24" fill="none" xmlns="http://www.w3.org/2000/svg">
<path d="M12.048 13.2949C11.7587 13.2971 11.4785 13.3961 11.2521 13.5761C11.0256 13.7561 10.866 14.0068 10.7986 14.2881C10.7312 14.5694 10.7599 14.8652 10.8802 15.1283C11.0005 15.3914 11.2055 15.6066 11.4624 15.7396V17.2763H12.537V15.788C12.8144 15.6743 13.0437 15.4678 13.1859 15.2039C13.3281 14.9399 13.3743 14.6348 13.3166 14.3406C13.2589 14.0464 13.1009 13.7813 12.8695 13.5906C12.6382 13.3999 12.3478 13.2954 12.048 13.2949Z" fill="current"/>
<path d="M16.2982 10.2914V7.99177C16.3213 6.82686 15.8819 5.70024 15.0764 4.85843C14.2708 4.01663 13.1646 3.52819 11.9998 3.5C10.835 3.52819 9.72882 4.01663 8.92327 4.85843C8.11771 5.70024 7.67841 6.82686 7.70148 7.99177V10.2914H4.93506V19.4254C4.93506 19.7104 5.04827 19.9837 5.2498 20.1852C5.45132 20.3868 5.72465 20.5 6.00965 20.5H17.99C18.275 20.5 18.5483 20.3868 18.7499 20.1852C18.9514 19.9837 19.0646 19.7104 19.0646 19.4254V10.2914H16.2982ZM8.77607 7.99177C8.7529 7.11182 9.07897 6.25846 9.68303 5.61816C10.2871 4.97786 11.12 4.60268 11.9998 4.57459C12.8796 4.60268 13.7126 4.97786 14.3166 5.61816C14.9207 6.25846 15.2468 7.11182 15.2236 7.99177V10.2914H8.77607V7.99177ZM6.00965 19.4254V11.366H17.99V19.4254H6.00965Z" fill="current"/>
</svg>
