<svg width="30" height="30" viewBox="0 0 30 30" fill="none" xmlns="http://www.w3.org/2000/svg">
<g clip-path="url(#clip0_363_5022)">
<path fill-rule="evenodd" clip-rule="evenodd" d="M22.0225 1.21414C21.2198 2.01676 21.0937 3.23972 21.6441 4.17442H6.23612C5.18377 4.17442 4.33067 5.02752 4.33067 6.07988V21.4891C3.39569 20.9372 2.17147 21.0629 1.36822 21.8662C0.415995 22.8184 0.415996 24.3623 1.36823 25.3145L4.36345 28.3097C4.81995 28.7662 5.41244 29.0039 6.01052 29.0227C6.08451 29.0314 6.15979 29.0359 6.23613 29.0359H27.2867C28.339 29.0359 29.1921 28.1828 29.1921 27.1304V6.07988C29.1921 6.00344 29.1876 5.92806 29.1789 5.85398C29.1595 5.25673 28.9219 4.66524 28.466 4.20936L25.4708 1.21414C24.5186 0.261912 22.9747 0.261912 22.0225 1.21414Z" fill="#001B1C"/>
<path d="M5.94043 0.937495C6.25424 0.623685 6.67986 0.447388 7.12365 0.447388H23.7858C24.7099 0.447388 25.4591 1.19656 25.4591 2.12072V23.6355C25.4591 24.5597 24.7099 25.3089 23.7858 25.3089H2.27099C1.34683 25.3089 0.597656 24.5597 0.597656 23.6355V6.97339C0.597656 6.52959 0.773953 6.10397 1.08776 5.79016L5.94043 0.937495Z" fill="#083C3E"/>
<path d="M5.97424 0.971301C6.27908 0.666457 6.69254 0.495197 7.12365 0.495197H23.7858C24.6835 0.495197 25.4113 1.22297 25.4113 2.12072V23.6355C25.4113 24.5333 24.6835 25.261 23.7858 25.261H2.27099C1.37324 25.261 0.645466 24.5333 0.645466 23.6355V6.97339C0.645466 6.54227 0.816726 6.12881 1.12157 5.82397L5.97424 0.971301Z" stroke="white" stroke-opacity="0.05" stroke-width="0.0956189" stroke-linejoin="round"/>
<path d="M19.8601 9.27381C19.86 9.86645 19.6697 10.4434 19.3174 10.9199C18.9651 11.3965 18.4692 11.7474 17.9026 11.9213C18.0324 11.4985 18.0981 11.0586 18.0977 10.6163C18.0977 9.83724 17.8951 9.07155 17.5099 8.3944C17.1246 7.71725 16.5699 7.15192 15.9001 6.75392C16.2715 6.58155 16.6758 6.49195 17.0852 6.49133C17.822 6.49262 18.5283 6.78642 19.0486 7.30818C19.5689 7.82993 19.8608 8.53693 19.8601 9.27381ZM19.2976 12.7164C18.9826 12.6281 18.6454 12.6686 18.3601 12.8289C18.0395 13.0067 17.6835 13.1116 17.3177 13.1363C17.1662 13.3671 16.9902 13.5809 16.7927 13.7739C17.5012 14.007 18.132 14.4305 18.6161 14.9979C19.1002 15.5654 19.419 16.255 19.5377 16.9914H20.0552C20.2214 16.9937 20.3851 16.951 20.529 16.8679C20.673 16.7847 20.7917 16.6642 20.8727 16.519C21.0216 16.2397 21.0989 15.9278 21.0977 15.6113V15.0788C21.0976 13.9613 20.3552 12.9938 19.2976 12.7164ZM11.2952 6.75392C10.9239 6.58155 10.5195 6.49195 10.1102 6.49133C9.44566 6.49179 8.80337 6.73053 8.29989 7.16419C7.79641 7.59785 7.46513 8.19768 7.36621 8.85477C7.26729 9.51186 7.40728 10.1826 7.76077 10.7453C8.11426 11.308 8.6578 11.7252 9.29271 11.9213C9.16296 11.4985 9.09721 11.0586 9.09766 10.6163C9.09762 9.83724 9.30017 9.07155 9.68544 8.3944C10.0707 7.71725 10.6254 7.15192 11.2952 6.75392ZM10.4027 13.7738C10.2051 13.5809 10.0291 13.3671 9.87764 13.1362C9.51179 13.1116 9.15586 13.0066 8.83518 12.8288C8.54995 12.6685 8.21273 12.628 7.89767 12.7163C6.84013 12.9937 6.09767 13.9612 6.09767 15.0788V15.6113C6.09647 15.9278 6.17377 16.2396 6.32267 16.5189C6.40278 16.6632 6.52029 16.7832 6.66283 16.8663C6.80538 16.9495 6.96769 16.9927 7.13271 16.9913H7.65766C7.7763 16.2549 8.0951 15.5653 8.57921 14.9979C9.06333 14.4304 9.69413 14.007 10.4027 13.7738ZM16.2827 14.7939C16.1526 14.7612 16.0192 14.7436 15.8851 14.7413C15.6251 14.7419 15.3694 14.809 15.1427 14.9364C14.6695 15.1971 14.138 15.3339 13.5977 15.3339C13.0574 15.3339 12.5259 15.1971 12.0526 14.9364C11.8259 14.809 11.5703 14.7419 11.3102 14.7413C11.1761 14.7436 11.0427 14.7612 10.9126 14.7939C10.2823 14.9648 9.72605 15.3389 9.33008 15.8583C8.93411 16.3776 8.72059 17.0131 8.72265 17.6661V18.3187C8.72289 18.7011 8.81827 19.0774 9.00017 19.4137C9.18766 19.7736 9.56267 19.9912 9.98265 19.9912H17.2127C17.6326 19.9912 18.0077 19.7736 18.1951 19.4137C18.3771 19.0774 18.4724 18.7011 18.4727 18.3187V17.6663C18.4748 17.0132 18.2613 16.3777 17.8653 15.8583C17.4693 15.339 16.913 14.9648 16.2827 14.7939ZM16.9727 10.6163C16.9727 9.94881 16.7747 9.29629 16.4039 8.74127C16.033 8.18626 15.5059 7.75367 14.8892 7.49823C14.2725 7.24278 13.5939 7.17595 12.9392 7.30617C12.2845 7.4364 11.6832 7.75783 11.2112 8.22984C10.7392 8.70184 10.4177 9.30321 10.2875 9.95789C10.1573 10.6126 10.2241 11.2912 10.4796 11.9079C10.735 12.5246 11.1676 13.0517 11.7226 13.4225C12.2776 13.7934 12.9301 13.9913 13.5977 13.9913C14.4928 13.9913 15.3512 13.6357 15.9841 13.0028C16.6171 12.3699 16.9727 11.5114 16.9727 10.6163Z" fill="#FFD77C"/>
</g>
<defs>
<clipPath id="clip0_363_5022">
<rect width="30" height="30" fill="white"/>
</clipPath>
</defs>
</svg>
