<svg width="18" height="28" viewBox="0 0 18 28" fill="none" xmlns="http://www.w3.org/2000/svg">
<path d="M14.3782 0.230469H3.62167C2.86032 0.231326 2.1304 0.534152 1.59204 1.07251C1.05368 1.61087 0.750858 2.34079 0.75 3.10214V24.8974C0.750858 25.6587 1.05368 26.3886 1.59204 26.927C2.1304 27.4654 2.86032 27.7682 3.62167 27.769H14.3782C15.1396 27.7682 15.8695 27.4654 16.4078 26.927C16.9462 26.3886 17.249 25.6587 17.2499 24.8974V3.10214C17.249 2.34079 16.9462 1.61087 16.4078 1.07251C15.8695 0.534152 15.1396 0.231326 14.3782 0.230469ZM12.2329 1.26132V1.92755C12.2326 2.06212 12.179 2.19111 12.0839 2.28624C11.9887 2.38137 11.8596 2.43487 11.7251 2.43503H6.27627C6.14173 2.43487 6.01274 2.38136 5.9176 2.28622C5.82247 2.19108 5.76895 2.06209 5.7688 1.92755V1.26132H12.2329ZM16.2187 24.8974C16.2182 25.3854 16.0241 25.8533 15.679 26.1984C15.3339 26.5435 14.866 26.7376 14.3779 26.7382H3.62167C3.13362 26.7376 2.66572 26.5435 2.32062 26.1984C1.97552 25.8533 1.7814 25.3854 1.78086 24.8974V3.10214C1.7814 2.61409 1.97552 2.14619 2.32062 1.80109C2.66572 1.45599 3.13362 1.26187 3.62167 1.26132H4.73676V1.92755C4.73723 2.3354 4.89945 2.72641 5.18784 3.0148C5.47624 3.30319 5.86725 3.46542 6.27509 3.46588H11.7239C12.1318 3.46542 12.5228 3.3032 12.8113 3.01482C13.0997 2.72643 13.262 2.33543 13.2625 1.92755V1.26132H14.3782C14.8662 1.26195 15.334 1.4561 15.6791 1.80119C16.0241 2.14629 16.2182 2.61414 16.2187 3.10214V24.8974Z" fill="current"/>
<path d="M12.1694 24.2849H5.83086C5.69416 24.2849 5.56306 24.3392 5.46639 24.4359C5.36973 24.5325 5.31543 24.6636 5.31543 24.8003C5.31543 24.937 5.36973 25.0681 5.46639 25.1648C5.56306 25.2615 5.69416 25.3158 5.83086 25.3158H12.1694C12.3061 25.3158 12.4372 25.2615 12.5339 25.1648C12.6306 25.0681 12.6849 24.937 12.6849 24.8003C12.6849 24.6636 12.6306 24.5325 12.5339 24.4359C12.4372 24.3392 12.3061 24.2849 12.1694 24.2849Z" fill="current"/>
</svg>
