<svg width="184" height="65" viewBox="0 0 184 65" fill="none" xmlns="http://www.w3.org/2000/svg">
<rect y="0.5" width="184" height="64" rx="8" fill="#FAFAFA"/>
<rect x="31.8636" y="9.72705" width="105.545" height="6.54545" rx="3.27273" fill="#E7E7E7"/>
<rect x="142.318" y="9.72705" width="9.81818" height="6.54545" rx="3.27273" fill="#E7E7E7"/>
<rect x="12" y="23.2725" width="160" height="32" rx="16" fill="white"/>
<rect x="36.8546" y="29.945" width="18.6545" height="18.6545" rx="9.32727" fill="#FAFAFA"/>
<path d="M47.2379 36.7103V41.9995H46.2797V37.6426H46.2487L45.0116 38.4329V37.5548L46.3262 36.7103H47.2379Z" fill="#CDCDCD"/>
<rect x="36.8546" y="29.945" width="18.6545" height="18.6545" rx="9.32727" stroke="#E4E4E4" stroke-width="0.981818"/>
<rect x="59.7636" y="29.945" width="18.6545" height="18.6545" rx="9.32727" fill="#FFF0B3"/>
<path d="M67.166 41.9995V41.3074L69.0022 39.5073C69.1779 39.3299 69.3242 39.1724 69.4413 39.0346C69.5584 38.8969 69.6462 38.7635 69.7047 38.6343C69.7633 38.5052 69.7925 38.3675 69.7925 38.2211C69.7925 38.0541 69.7547 37.9112 69.6789 37.7924C69.6031 37.6719 69.499 37.5789 69.3664 37.5135C69.2338 37.448 69.0832 37.4153 68.9144 37.4153C68.7405 37.4153 68.5882 37.4515 68.4573 37.5238C68.3265 37.5944 68.2249 37.6951 68.1526 37.826C68.082 37.9568 68.0467 38.1126 68.0467 38.2934H67.135C67.135 37.9577 67.2116 37.6658 67.3649 37.4179C67.5181 37.17 67.729 36.978 67.9976 36.842C68.2679 36.706 68.5778 36.6379 68.9274 36.6379C69.282 36.6379 69.5937 36.7042 69.8623 36.8368C70.1309 36.9694 70.3392 37.151 70.4873 37.3817C70.6371 37.6125 70.712 37.8759 70.712 38.172C70.712 38.37 70.6741 38.5646 70.5983 38.7557C70.5226 38.9468 70.3891 39.1586 70.198 39.391C70.0086 39.6235 69.7426 39.905 69.4 40.2356L68.4883 41.1627V41.1989H70.792V41.9995H67.166Z" fill="#053132"/>
<rect x="59.7636" y="29.945" width="18.6545" height="18.6545" rx="9.32727" stroke="#FFD87E" stroke-width="0.981818"/>
<rect x="82.6728" y="29.945" width="18.6545" height="18.6545" rx="9.32727" fill="#FAFAFA"/>
<path d="M91.8633 42.0718C91.4914 42.0718 91.1608 42.0081 90.8716 41.8807C90.5841 41.7533 90.3568 41.576 90.1898 41.3487C90.0228 41.1214 89.9341 40.8588 89.9238 40.561H90.8948C90.9034 40.7039 90.9508 40.8287 91.0369 40.9355C91.123 41.0405 91.2375 41.1223 91.3804 41.1808C91.5233 41.2394 91.6834 41.2686 91.8607 41.2686C92.0501 41.2686 92.218 41.2359 92.3644 41.1705C92.5107 41.1033 92.6252 41.0104 92.7078 40.8916C92.7905 40.7728 92.831 40.6359 92.8292 40.4809C92.831 40.3208 92.7896 40.1796 92.7053 40.0574C92.6209 39.9351 92.4987 39.8396 92.3385 39.7707C92.1801 39.7018 91.989 39.6674 91.7652 39.6674H91.2977V38.9287H91.7652C91.9494 38.9287 92.1104 38.8969 92.2481 38.8332C92.3876 38.7695 92.4969 38.68 92.5761 38.5646C92.6553 38.4475 92.6941 38.3124 92.6924 38.1591C92.6941 38.0093 92.6605 37.8793 92.5916 37.7691C92.5245 37.6572 92.4289 37.5703 92.305 37.5083C92.1827 37.4463 92.0389 37.4153 91.8737 37.4153C91.7118 37.4153 91.562 37.4446 91.4243 37.5031C91.2865 37.5617 91.1755 37.6452 91.0911 37.7536C91.0067 37.8604 90.962 37.9878 90.9568 38.1359H90.0348C90.0417 37.8397 90.1269 37.5797 90.2905 37.3559C90.4558 37.1304 90.6762 36.9547 90.9517 36.8291C91.2271 36.7016 91.5362 36.6379 91.8788 36.6379C92.2318 36.6379 92.5383 36.7042 92.7982 36.8368C93.06 36.9677 93.2623 37.1441 93.4052 37.3662C93.5481 37.5884 93.6195 37.8337 93.6195 38.1023C93.6212 38.4002 93.5334 38.6498 93.3561 38.8513C93.1805 39.0527 92.9498 39.1844 92.6639 39.2464V39.2877C93.0358 39.3394 93.3208 39.4771 93.5188 39.701C93.7185 39.9231 93.8175 40.1994 93.8158 40.53C93.8158 40.8261 93.7314 41.0913 93.5627 41.3254C93.3957 41.5579 93.165 41.7404 92.8706 41.873C92.5779 42.0055 92.2421 42.0718 91.8633 42.0718Z" fill="#CDCDCD"/>
<rect x="82.6728" y="29.945" width="18.6545" height="18.6545" rx="9.32727" stroke="#E4E4E4" stroke-width="0.981818"/>
<rect x="105.582" y="29.945" width="18.6545" height="18.6545" rx="9.32727" fill="#FAFAFA"/>
<path d="M112.725 41.0181V40.2562L114.97 36.7103H115.605V37.795H115.218L113.707 40.1891V40.2304H116.84V41.0181H112.725ZM115.249 41.9995V40.7857L115.259 40.4448V36.7103H116.163V41.9995H115.249Z" fill="#CDCDCD"/>
<rect x="105.582" y="29.945" width="18.6545" height="18.6545" rx="9.32727" stroke="#E4E4E4" stroke-width="0.981818"/>
<rect x="128.491" y="29.945" width="18.6545" height="18.6545" rx="9.32727" fill="#FAFAFA"/>
<path d="M137.69 42.0718C137.345 42.0718 137.037 42.0073 136.765 41.8781C136.493 41.7473 136.277 41.5682 136.117 41.3409C135.958 41.1137 135.874 40.8537 135.864 40.561H136.793C136.811 40.7779 136.904 40.9553 137.075 41.093C137.245 41.229 137.45 41.297 137.69 41.297C137.877 41.297 138.044 41.254 138.191 41.1679C138.337 41.0818 138.452 40.9621 138.537 40.8089C138.621 40.6557 138.662 40.4809 138.661 40.2846C138.662 40.0849 138.62 39.9076 138.534 39.7526C138.448 39.5977 138.33 39.4763 138.18 39.3885C138.03 39.2989 137.858 39.2542 137.664 39.2542C137.505 39.2524 137.349 39.2817 137.196 39.342C137.043 39.4022 136.922 39.4814 136.832 39.5796L135.967 39.4375L136.243 36.7103H139.311V37.5109H137.036L136.884 38.9133H136.915C137.013 38.7979 137.151 38.7023 137.331 38.6266C137.51 38.5491 137.706 38.5104 137.919 38.5104C138.24 38.5104 138.525 38.5861 138.777 38.7376C139.028 38.8874 139.226 39.094 139.371 39.3575C139.515 39.6209 139.588 39.9222 139.588 40.2614C139.588 40.6109 139.507 40.9225 139.345 41.1963C139.185 41.4683 138.962 41.6827 138.676 41.8394C138.392 41.9943 138.063 42.0718 137.69 42.0718Z" fill="#CDCDCD"/>
<rect x="128.491" y="29.945" width="18.6545" height="18.6545" rx="9.32727" stroke="#E4E4E4" stroke-width="0.981818"/>
</svg>
