<svg width="28" height="28" viewBox="0 0 28 28" fill="none" xmlns="http://www.w3.org/2000/svg">
<g clip-path="url(#clip0_792_6948)">
<path d="M8.68838 18.4932C8.44305 18.4932 8.27772 18.5172 8.19238 18.5412V20.1118C8.29372 20.1358 8.42038 20.1425 8.59505 20.1425C9.23372 20.1425 9.62705 19.8198 9.62705 19.2745C9.62705 18.7865 9.28838 18.4932 8.68838 18.4932ZM13.3377 18.5092C13.071 18.5092 12.8977 18.5332 12.795 18.5572V22.0372C12.8977 22.0612 13.063 22.0612 13.2124 22.0612C14.3017 22.0692 15.011 21.4692 15.011 20.1998C15.019 19.0932 14.3724 18.5092 13.3377 18.5092Z" fill="#2D7C7E"/>
<path d="M16.3324 1.58618H5.66569C4.95845 1.58618 4.28017 1.86713 3.78007 2.36723C3.27997 2.86733 2.99902 3.5456 2.99902 4.25285V25.5862C2.99902 26.2934 3.27997 26.9717 3.78007 27.4718C4.28017 27.9719 4.95845 28.2528 5.66569 28.2528H21.6657C22.3729 28.2528 23.0512 27.9719 23.5513 27.4718C24.0514 26.9717 24.3324 26.2934 24.3324 25.5862V9.58618L16.3324 1.58618ZM10.3297 20.5062C9.91769 20.8928 9.30969 21.0662 8.60169 21.0662C8.46441 21.0677 8.32719 21.0597 8.19102 21.0422V22.9435H6.99902V17.6955C7.53696 17.6153 8.08052 17.5787 8.62436 17.5862C9.36702 17.5862 9.89502 17.7275 10.251 18.0115C10.5897 18.2808 10.819 18.7222 10.819 19.2422C10.8177 19.7648 10.6444 20.2062 10.3297 20.5062ZM15.4057 22.3128C14.8457 22.7782 13.9937 22.9995 12.9524 22.9995C12.3284 22.9995 11.887 22.9595 11.587 22.9195V17.6968C12.1252 17.6183 12.6685 17.5813 13.2124 17.5862C14.2217 17.5862 14.8777 17.7675 15.3897 18.1542C15.943 18.5648 16.2897 19.2195 16.2897 20.1595C16.2897 21.1768 15.9177 21.8795 15.4057 22.3128ZM20.3324 18.6128H18.2897V19.8275H20.199V20.8062H18.2897V22.9448H17.0817V17.6262H20.3324V18.6128ZM16.3324 10.9195H14.999V4.25285L21.6657 10.9195H16.3324Z" fill="#2D7C7E"/>
</g>
<defs>
<clipPath id="clip0_792_6948">
<rect width="28" height="27" fill="white" transform="translate(0 0.919922)"/>
</clipPath>
</defs>
</svg>
