<svg width="18" height="19" viewBox="0 0 18 19" fill="none" xmlns="http://www.w3.org/2000/svg">
<g clip-path="url(#clip0_792_6859)">
<path d="M16.088 3.45993L13.9156 1.28756C13.5545 0.926431 13.0741 0.727306 12.5634 0.727306H4.11123C2.59136 0.727306 1.35498 1.96368 1.35498 3.48356V14.7336C1.35498 16.2534 2.59136 17.4898 4.11123 17.4898H13.8925C15.4124 17.4898 16.6488 16.2534 16.6488 14.7336V4.81218C16.6482 4.30931 16.444 3.81599 16.088 3.45993ZM13.1995 2.00362L15.3719 4.17599C15.5395 4.34362 15.6357 4.57537 15.6357 4.81218V5.19018H13.3711C12.7197 5.19018 12.1899 4.66031 12.1899 4.00893V1.73981H12.5634C12.8035 1.73981 13.0297 1.83318 13.1995 2.00362ZM13.892 16.4773H4.11123C3.14992 16.4773 2.36748 15.6949 2.36748 14.7336V3.48356C2.36748 2.52224 3.14992 1.73981 4.11123 1.73981H11.1779V4.00893C11.1779 5.21831 12.1623 6.20268 13.3717 6.20268H15.6363V14.7336C15.6357 15.6949 14.8539 16.4773 13.892 16.4773Z" fill="white"/>
<path d="M10.8593 10.7108L9.50817 11.9078V8.00746C9.50817 7.7279 9.28148 7.50121 9.00192 7.50121C8.72236 7.50121 8.49567 7.7279 8.49567 8.00746V11.9078L7.14455 10.7108C6.93473 10.5258 6.61523 10.5449 6.42961 10.7542C6.24398 10.9634 6.26367 11.2835 6.47292 11.4691L8.52098 13.2837C8.65823 13.4052 8.8298 13.466 9.00136 13.466C9.17348 13.466 9.34505 13.4052 9.48173 13.2837L11.5298 11.4691C11.739 11.2835 11.7587 10.964 11.5731 10.7542C11.388 10.5455 11.068 10.5258 10.8593 10.7108Z" fill="white"/>
</g>
<defs>
<clipPath id="clip0_792_6859">
<rect width="18" height="18" fill="white" transform="translate(0 0.109375)"/>
</clipPath>
</defs>
</svg>
