<svg width="19" height="19" viewBox="0 0 19 19" fill="none" xmlns="http://www.w3.org/2000/svg">
<g clip-path="url(#clip0_52_1782)">
<path d="M14.0984 0H4.31686C3.32403 0 2.51172 0.812308 2.51172 1.80513V16.2461C2.51172 17.239 3.32403 18.0513 4.31686 18.0513H14.0984C15.0912 18.0513 15.9035 17.239 15.9035 16.2461V1.80513C15.9035 0.812308 15.0912 0 14.0984 0ZM7.2502 15.4282C7.2502 15.0954 7.52096 14.8302 7.85379 14.8302H10.5615C10.8943 14.8302 11.1651 15.0954 11.1651 15.4282C11.1651 15.761 10.8943 16.0318 10.5615 16.0318H7.85379C7.52096 16.0318 7.2502 15.761 7.2502 15.4282ZM12.3553 8.30922H9.81121V10.859C9.81121 11.1918 9.54045 11.4569 9.20762 11.4569C8.87481 11.4569 8.60402 11.1918 8.60402 10.859V8.30922H6.05995C5.72711 8.30922 5.45635 8.04411 5.45635 7.71127C5.45635 7.37843 5.72711 7.10768 6.05995 7.10768H8.60402V4.56357C8.60402 4.23077 8.87481 3.95998 9.20762 3.95998C9.54045 3.95998 9.81121 4.23077 9.81121 4.56357V7.10768H12.3553C12.6882 7.10768 12.9589 7.37844 12.9589 7.71128C12.9589 8.04411 12.6882 8.30922 12.3553 8.30922Z" fill="current"/>
</g>
<defs>
<clipPath id="clip0_52_1782">
<rect width="18.0513" height="18.0513" fill="white" transform="translate(0.181641)"/>
</clipPath>
</defs>
</svg>
