<svg width="22" height="21" viewBox="0 0 22 21" fill="none" xmlns="http://www.w3.org/2000/svg">
<path d="M15.368 16.3881L14.251 20.1663H9.79895C9.79895 19.0217 9.34424 17.9239 8.53488 17.1146L7.50974 16.0894C7.04384 15.6235 7.01881 14.8638 7.47513 14.3885C7.71225 14.1415 8.02803 14.018 8.3438 14.018C8.65144 14.018 8.95948 14.1355 9.19451 14.3705L9.79895 14.975V10.003C9.79895 9.34551 10.3162 8.79105 10.9735 8.77573C11.317 8.7677 11.6289 8.90391 11.8529 9.12796C12.0707 9.34575 12.2055 9.64657 12.2055 9.97867V13.8026L14.6338 14.8616C15.2315 15.0994 15.5415 15.7694 15.368 16.3881Z" stroke="#2D7C7E" stroke-width="0.985714" stroke-miterlimit="10" stroke-linecap="round" stroke-linejoin="round"/>
<path d="M11.0005 0.833984L9.90452 2.31865L8.15381 2.9022L9.22716 4.40335L9.24116 6.24867L11.0005 5.69176L12.7598 6.24867L12.7738 4.40335L13.8472 2.9022L12.0965 2.31865L11.0005 0.833984Z" stroke="#2D7C7E" stroke-width="0.985714" stroke-miterlimit="10" stroke-linecap="round" stroke-linejoin="round"/>
<path d="M17.8198 4.04248L16.7238 5.52715L14.9731 6.11069L16.0465 7.61184L16.0605 9.45717L17.8198 8.90026L19.5791 9.45717L19.5932 7.61184L20.6665 6.11069L18.9158 5.52715L17.8198 4.04248Z" stroke="#2D7C7E" stroke-width="0.985714" stroke-miterlimit="10" stroke-linecap="round" stroke-linejoin="round"/>
<path d="M4.18042 4.04248L5.2764 5.52715L7.02707 6.11069L5.95375 7.61184L5.93976 9.45717L4.18042 8.90026L2.42109 9.45717L2.40705 7.61184L1.33374 6.11069L3.08441 5.52715L4.18042 4.04248Z" stroke="#2D7C7E" stroke-width="0.985714" stroke-miterlimit="10" stroke-linecap="round" stroke-linejoin="round"/>
</svg>
