<svg width="18" height="18" viewBox="0 0 18 18" fill="none" xmlns="http://www.w3.org/2000/svg">
<g clip-path="url(#clip0_599_6210)">
<path d="M17.2564 9.69983V10.9593C17.2564 12.8914 15.69 14.4577 13.7579 14.4577H4.24138C2.30963 14.4577 0.743652 12.8918 0.743652 10.96V5.2218C0.743652 3.28967 2.30998 1.72334 4.24211 1.72334H5.11673M12.3585 17.2565H5.64149M17.2563 1.93329C17.2563 1.41327 16.6861 1.09467 16.2432 1.3672L14.3527 2.77288C14.144 1.63207 13.1456 0.743774 11.9445 0.743774H10.1545C8.80204 0.743774 7.70562 1.84016 7.70559 3.19266L7.70555 4.94193C7.70552 6.29443 8.80197 7.39088 10.1545 7.39088H11.9445C13.1456 7.39088 14.144 6.53757 14.3527 5.39676L16.2433 6.76746C16.6862 7.03999 17.2564 6.72135 17.2564 6.20134L17.2563 1.93329Z" stroke="current" stroke-width="1.07075" stroke-miterlimit="10" stroke-linecap="round" stroke-linejoin="round"/>
</g>
<defs>
<clipPath id="clip0_599_6210">
<rect width="17.9121" height="17.9121" fill="white" transform="translate(0.0439453 0.0439453)"/>
</clipPath>
</defs>
</svg>
