<svg width="20" height="17" viewBox="0 0 20 17" fill="none" xmlns="http://www.w3.org/2000/svg">
<path fill-rule="evenodd" clip-rule="evenodd" d="M10.2808 0.6479C10.2808 0.49915 10.3399 0.356492 10.4451 0.25131C10.5503 0.146127 10.6929 0.0870361 10.8417 0.0870361C12.5056 0.0870361 14.1322 0.580448 15.5157 1.50488C16.8992 2.4293 17.9775 3.74323 18.6142 5.2805C19.251 6.81777 19.4176 8.50933 19.093 10.1413C18.7684 11.7732 17.9671 13.2723 16.7905 14.4489C15.614 15.6254 14.1149 16.4267 12.483 16.7513C10.851 17.0759 9.15944 16.9093 7.62217 16.2726C6.0849 15.6358 4.77098 14.5575 3.84655 13.174C2.92212 11.7905 2.42871 10.1639 2.42871 8.5C2.42871 8.35125 2.4878 8.20859 2.59298 8.10341C2.69817 7.99823 2.84082 7.93914 2.98958 7.93914C3.13833 7.93914 3.28098 7.99823 3.38617 8.10341C3.49135 8.20859 3.55044 8.35125 3.55044 8.5C3.55044 9.94207 3.97806 11.3518 4.77923 12.5508C5.58041 13.7498 6.71914 14.6844 8.05144 15.2362C9.38374 15.7881 10.8498 15.9325 12.2641 15.6511C13.6785 15.3698 14.9777 14.6754 15.9974 13.6557C17.0171 12.636 17.7115 11.3368 17.9928 9.92245C18.2741 8.50809 18.1298 7.04206 17.5779 5.70976C17.026 4.37747 16.0915 3.23873 14.8925 2.43756C13.6934 1.63639 12.2837 1.20876 10.8417 1.20876C10.6929 1.20876 10.5503 1.14967 10.4451 1.04449C10.3399 0.939309 10.2808 0.796651 10.2808 0.6479Z" fill="current"/>
<path d="M8.03767 0.928332C8.03767 1.15146 7.94903 1.36545 7.79126 1.52322C7.63349 1.68099 7.4195 1.76963 7.19637 1.76963C6.97325 1.76963 6.75926 1.68099 6.60149 1.52322C6.44371 1.36545 6.35508 1.15146 6.35508 0.928332C6.35508 0.705207 6.44371 0.49122 6.60149 0.333446C6.75926 0.175672 6.97325 0.0870361 7.19637 0.0870361C7.4195 0.0870361 7.63349 0.175672 7.79126 0.333446C7.94903 0.49122 8.03767 0.705207 8.03767 0.928332ZM5.23335 2.61093C5.23335 2.83405 5.14471 3.04804 4.98694 3.20581C4.82917 3.36359 4.61518 3.45222 4.39205 3.45222C4.16893 3.45222 3.95494 3.36359 3.79717 3.20581C3.63939 3.04804 3.55076 2.83405 3.55076 2.61093C3.55076 2.3878 3.63939 2.17381 3.79717 2.01604C3.95494 1.85826 4.16893 1.76963 4.39205 1.76963C4.61518 1.76963 4.82917 1.85826 4.98694 2.01604C5.14471 2.17381 5.23335 2.3878 5.23335 2.61093ZM3.55076 5.41525C3.55076 5.63837 3.46212 5.85236 3.30435 6.01013C3.14657 6.16791 2.93259 6.25654 2.70946 6.25654C2.48633 6.25654 2.27235 6.16791 2.11457 6.01013C1.9568 5.85236 1.86816 5.63837 1.86816 5.41525C1.86816 5.19212 1.9568 4.97813 2.11457 4.82036C2.27235 4.66259 2.48633 4.57395 2.70946 4.57395C2.93259 4.57395 3.14657 4.66259 3.30435 4.82036C3.46212 4.97813 3.55076 5.19212 3.55076 5.41525Z" fill="current"/>
<path fill-rule="evenodd" clip-rule="evenodd" d="M5.73447 9.87295C5.8011 9.73997 5.81218 9.58596 5.76527 9.44481C5.71836 9.30366 5.6173 9.18692 5.48432 9.12027L3.24086 7.99855C3.10804 7.93327 2.9548 7.92313 2.81454 7.97035C2.67427 8.01757 2.55836 8.11832 2.49205 8.25063C2.42575 8.38294 2.41443 8.5361 2.46056 8.67673C2.50669 8.81735 2.60653 8.93404 2.73833 9.00137L4.98179 10.1231C5.11477 10.1897 5.26878 10.2008 5.40993 10.1539C5.55109 10.107 5.66782 10.0059 5.73447 9.87295Z" fill="current"/>
<path fill-rule="evenodd" clip-rule="evenodd" d="M3.38647 8.10293C3.4387 8.15503 3.48014 8.21692 3.50841 8.28506C3.53669 8.3532 3.55124 8.42625 3.55124 8.50002C3.55124 8.5738 3.53669 8.64685 3.50841 8.71498C3.48014 8.78312 3.4387 8.84502 3.38647 8.89712L1.70387 10.5797C1.59871 10.685 1.45601 10.7442 1.30718 10.7444C1.15835 10.7445 1.01557 10.6854 0.910251 10.5803C0.804935 10.4751 0.745711 10.3324 0.745606 10.1836C0.7455 10.0347 0.804523 9.89196 0.90969 9.78665L2.59228 8.10405C2.64438 8.05182 2.70627 8.01038 2.77441 7.98211C2.84255 7.95383 2.9156 7.93928 2.98937 7.93928C3.06315 7.93928 3.1362 7.95383 3.20434 7.98211C3.27248 8.01038 3.33437 8.05182 3.38647 8.10405V8.10293ZM10.8415 4.57397C10.9902 4.57397 11.1329 4.63307 11.2381 4.73825C11.3432 4.84343 11.4023 4.98609 11.4023 5.13484V8.50002C11.4023 8.64878 11.3432 8.79143 11.2381 8.89662C11.1329 9.0018 10.9902 9.06089 10.8415 9.06089C10.6927 9.06089 10.5501 9.0018 10.4449 8.89662C10.3397 8.79143 10.2806 8.64878 10.2806 8.50002V5.13484C10.2806 4.98609 10.3397 4.84343 10.4449 4.73825C10.5501 4.63307 10.6927 4.57397 10.8415 4.57397Z" fill="current"/>
<path fill-rule="evenodd" clip-rule="evenodd" d="M14.7677 8.49995C14.7677 8.6487 14.7086 8.79136 14.6034 8.89654C14.4982 9.00172 14.3556 9.06082 14.2068 9.06082H10.8416C10.6929 9.06082 10.5502 9.00172 10.445 8.89654C10.3399 8.79136 10.2808 8.6487 10.2808 8.49995C10.2808 8.3512 10.3399 8.20854 10.445 8.10336C10.5502 7.99818 10.6929 7.93909 10.8416 7.93909H14.2068C14.3556 7.93909 14.4982 7.99818 14.6034 8.10336C14.7086 8.20854 14.7677 8.3512 14.7677 8.49995Z" fill="current"/>
</svg>
