<svg width="218" height="133" viewBox="0 0 218 133" fill="none" xmlns="http://www.w3.org/2000/svg">
<path d="M1 8.77344C1 4.6313 4.35786 1.27344 8.5 1.27344H209.5C213.642 1.27344 217 4.6313 217 8.77344V128.773C217 130.706 215.433 132.273 213.5 132.273H4.49999C2.567 132.273 1 130.706 1 128.773V8.77344Z" fill="#FAFAFA"/>
<path d="M145.313 52.1066V112.452C145.313 115.526 142.887 117.952 139.814 117.952C137.387 117.952 72.3513 117.952 71.8651 117.952C68.7923 117.952 66.3661 115.526 66.3661 112.452V52.1066C70.4097 52.1066 142.563 52.1066 145.313 52.1066Z" fill="#2D7C7E"/>
<path d="M137.226 60.1954V109.701C133.503 109.701 74.6155 109.701 74.4551 109.701V60.1954H137.226Z" fill="white"/>
<path d="M114.899 65.3738V77.5063C114.899 77.5063 98.7215 77.5063 96.6178 77.5063V65.3738H114.899Z" fill="white"/>
<path d="M98.7213 46.1217H145.313V52.269H98.7213V46.1217Z" fill="white"/>
<path d="M145.313 45.4749V46.1216H98.7213V39.9743H139.814C142.887 39.9743 145.313 42.4005 145.313 45.4749Z" fill="white"/>
<path d="M133.665 24.9276C136.255 24.9276 138.195 27.0313 138.195 29.4575C138.195 32.0473 136.093 33.9873 133.665 33.9873C131.239 33.9873 129.135 31.8837 129.135 29.4575C129.135 26.8692 131.077 24.9276 133.665 24.9276Z" fill="white"/>
<path d="M114.899 65.3738H132.048V77.5063H114.899V65.3738Z" fill="white"/>
<path d="M125.901 109.863C123.15 114.716 117.974 117.952 111.987 117.952C107.457 117.952 103.576 116.173 100.501 113.26C99.5303 112.289 98.5595 111.157 97.9129 109.863C96.6179 107.435 95.8092 104.685 95.8092 101.774V94.6547C95.8092 93.1993 97.1042 91.9044 98.5595 91.9044H101.796V88.8315V77.5061V76.8595C101.796 74.5954 103.576 72.8158 105.84 72.8158C106.973 72.8158 107.943 73.3004 108.752 73.9471C109.399 74.7558 109.885 75.7266 109.885 76.8595V77.5061V88.3453H128.165V101.774C128.004 104.685 127.356 107.435 125.901 109.863Z" fill="white"/>
<path d="M98.7216 52.1069H66.3661V45.475C66.3661 42.4006 68.7923 39.9744 71.8651 39.9744H98.7216C98.7216 41.4298 98.7216 50.6515 98.7216 52.1069Z" fill="white"/>
<path d="M79.4694 65.3738H96.6179V77.5063H79.4694V65.3738Z" fill="white"/>
<path d="M86.5871 44.0178C87.72 44.0178 88.6908 44.9886 88.6908 46.1215C88.6908 47.2543 87.72 48.2251 86.5871 48.2251C85.4559 48.2251 84.4851 47.2543 84.4851 46.1215C84.4851 44.9886 85.4559 44.0178 86.5871 44.0178Z" fill="#053132"/>
<path d="M80.6023 44.0178C81.7352 44.0178 82.706 44.9886 82.706 46.1215C82.706 47.2543 81.7352 48.2251 80.6023 48.2251C79.4695 48.2251 78.4987 47.2543 78.4987 46.1215C78.4987 44.9886 79.4695 44.0178 80.6023 44.0178Z" fill="#053132"/>
<path d="M77.5279 28.9728C79.1454 28.9728 80.6024 30.2662 80.6024 32.0473C80.6024 33.6647 79.3074 35.1201 77.5279 35.1201C75.7484 35.1201 74.4551 33.8252 74.4551 32.0473C74.4551 30.2662 75.9105 28.9728 77.5279 28.9728Z" fill="white"/>
<path d="M74.4547 44.0178C75.586 44.0178 76.5568 44.9886 76.5568 46.1215C76.5568 47.2543 75.586 48.2251 74.4547 48.2251C73.3219 48.2251 72.3511 47.2543 72.3511 46.1215C72.3511 44.9886 73.3219 44.0178 74.4547 44.0178Z" fill="#053132"/>
<path d="M145.313 53.2397H66.3662C65.88 53.2397 65.3954 52.7552 65.3954 52.269C65.3954 51.7844 65.88 51.2982 66.3662 51.2982H145.313C145.8 51.2982 146.286 51.7844 146.286 52.269C146.286 52.7552 145.8 53.2397 145.313 53.2397Z" fill="#053132"/>
<path d="M145.313 47.0923H98.7215C98.2353 47.0923 97.7507 46.6061 97.7507 46.1215C97.7507 45.6353 98.2353 45.1507 98.7215 45.1507H145.313C145.799 45.1507 146.286 45.6353 146.286 46.1215C146.286 46.6061 145.799 47.0923 145.313 47.0923Z" fill="#053132"/>
<path d="M98.7215 53.2397C98.2353 53.2397 97.7507 52.7552 97.7507 52.269V40.1364C97.7507 39.6502 98.2353 39.1656 98.7215 39.1656C99.2061 39.1656 99.6923 39.6502 99.6923 40.1364V52.269C99.6923 52.7552 99.3682 53.2397 98.7215 53.2397Z" fill="#053132"/>
<path d="M71.8652 41.1073C69.439 41.1073 67.337 43.0473 67.337 45.6356V112.614C67.337 115.04 69.277 117.144 71.8652 117.144H139.814C142.241 117.144 144.344 115.202 144.344 112.614V45.4751C144.344 43.0473 142.403 40.9436 139.814 40.9436H71.8652V41.1073ZM139.814 118.923H71.8652C68.3078 118.923 65.3954 116.011 65.3954 112.452V45.4751C65.3954 41.9144 68.3078 39.0037 71.8652 39.0037H139.814C143.373 39.0037 146.286 41.9144 146.286 45.4751V112.452C146.286 116.011 143.373 118.923 139.814 118.923Z" fill="#053132"/>
<path d="M137.226 110.834H125.9C125.414 110.834 124.93 110.348 124.93 109.864C124.93 109.377 125.414 108.893 125.9 108.893H136.093V61.3288H75.4256V108.893H97.9127C98.3973 108.893 98.8835 109.377 98.8835 109.864C98.8835 110.348 98.3973 110.833 97.9127 110.833H74.4548C73.9686 110.833 73.484 110.348 73.484 109.864V60.1959C73.484 59.7113 73.9686 59.2267 74.4548 59.2267H137.226C137.711 59.2267 138.195 59.7113 138.195 60.1959V109.702C138.195 110.348 137.711 110.834 137.226 110.834Z" fill="#053132"/>
<path d="M96.7801 78.4771H79.4695C78.9849 78.4771 78.4987 77.9925 78.4987 77.5063V65.3737C78.4987 64.8875 78.9849 64.4029 79.4695 64.4029H96.618C97.1042 64.4029 97.5888 64.8875 97.5888 65.3737C97.5888 65.8583 97.1042 66.3445 96.618 66.3445H80.4403V76.5371H96.618C97.1042 76.5371 97.5888 77.0217 97.5888 77.5063C97.5888 77.9925 97.2647 78.4771 96.7801 78.4771Z" fill="#053132"/>
<path d="M114.9 78.4771H109.885C109.399 78.4771 108.914 77.9925 108.914 77.5063C108.914 77.0217 109.399 76.5371 109.885 76.5371H114.9C115.384 76.5371 115.87 77.0217 115.87 77.5063C115.87 77.9925 115.546 78.4771 114.9 78.4771Z" fill="#053132"/>
<path d="M101.796 78.4771H96.78C96.2938 78.4771 95.8092 77.9925 95.8092 77.5063V65.3737C95.8092 64.8875 96.2938 64.4029 96.78 64.4029H115.061C115.546 64.4029 116.032 64.8875 116.032 65.3737C116.032 65.8583 115.546 66.3445 115.061 66.3445H97.7508V76.5371H101.796C102.281 76.5371 102.767 77.0217 102.767 77.5063C102.767 77.9925 102.281 78.4771 101.796 78.4771Z" fill="#053132"/>
<path d="M115.87 76.375H131.077V66.1825H115.87V76.375ZM132.048 78.4771H114.899C114.413 78.4771 113.929 77.9925 113.929 77.5063V65.3737C113.929 64.8875 114.413 64.4029 114.899 64.4029H132.048C132.533 64.4029 133.019 64.8875 133.019 65.3737V77.5063C133.181 77.9925 132.695 78.4771 132.048 78.4771Z" fill="#053132"/>
<path d="M101.796 101.126C101.31 101.126 100.825 100.642 100.825 100.157V91.9047C100.825 91.4201 101.31 90.9355 101.796 90.9355C102.281 90.9355 102.767 91.4201 102.767 91.9047V100.157C102.767 100.804 102.441 101.126 101.796 101.126Z" fill="#053132"/>
<path d="M109.885 108.084C109.399 108.084 108.914 107.599 108.914 107.113V93.6857C108.914 93.1995 109.399 92.7149 109.885 92.7149C110.37 92.7149 110.856 93.1995 110.856 93.6857V107.113C110.856 107.599 110.532 108.084 109.885 108.084Z" fill="#053132"/>
<path d="M115.223 108.084C114.737 108.084 114.253 107.599 114.253 107.113V96.274C114.253 95.7878 114.737 95.3016 115.223 95.3016C115.708 95.3016 116.194 95.7878 116.194 96.274V107.113C116.355 107.599 115.87 108.084 115.223 108.084Z" fill="#053132"/>
<path d="M120.724 108.084C120.238 108.084 119.753 107.599 119.753 107.113V99.0243C119.753 98.5381 120.238 98.0519 120.724 98.0519C121.209 98.0519 121.695 98.5381 121.695 99.0243V107.113C121.695 107.599 121.209 108.084 120.724 108.084Z" fill="#053132"/>
<path d="M98.5594 92.8771C97.5886 92.8771 96.7798 93.6859 96.7798 94.6551V101.775C96.7798 104.363 97.4265 106.951 98.7214 109.377C99.3681 110.51 100.177 111.643 101.148 112.452C104.06 115.363 107.781 116.821 111.826 116.821C117.163 116.821 122.179 113.907 124.93 109.215C126.225 106.951 126.871 104.363 126.871 101.613V89.1544H109.885C109.399 89.1544 108.914 88.6698 108.914 88.1852V76.6978C108.914 75.8891 108.59 75.0803 108.104 74.5957C107.619 73.9475 106.81 73.7854 106.002 73.7854C104.383 73.7854 102.927 75.0803 102.927 76.8599V91.9048C102.927 92.391 102.441 92.8771 101.956 92.8771H98.5594ZM111.987 118.923C107.457 118.923 103.089 117.144 99.8543 113.907C98.7214 112.774 97.9127 111.643 97.104 110.348C95.647 107.76 94.8383 104.849 94.8383 101.775V94.6551C94.8383 92.553 96.4557 90.9356 98.5594 90.9356H100.825V76.8599C100.825 74.1095 103.089 71.8454 105.839 71.8454C107.134 71.8454 108.428 72.33 109.399 73.3008C110.369 74.2716 110.856 75.5665 110.856 76.8599V87.3765H128.004C128.489 87.3765 128.975 87.8611 128.975 88.3457V101.775C128.975 104.849 128.165 107.76 126.709 110.348C123.797 115.526 117.974 118.923 111.987 118.923Z" fill="#053132"/>
<path d="M168.822 46.1212C169.978 46.1212 170.917 47.0579 170.917 48.2139C170.917 49.3699 169.978 50.3066 168.822 50.3066C167.668 50.3066 166.729 49.3699 166.729 48.2139C166.729 47.0579 167.668 46.1212 168.822 46.1212Z" fill="#053132"/>
<path d="M123.753 18.7173C124.909 18.7173 125.848 19.6541 125.848 20.8101C125.848 21.966 124.909 22.9028 123.753 22.9028C122.597 22.9028 121.66 21.966 121.66 20.8101C121.66 19.6541 122.597 18.7173 123.753 18.7173Z" fill="#053132"/>
<path d="M97.699 24.5319C98.855 24.5319 99.7941 25.471 99.7941 26.627C99.7941 27.7829 98.855 28.7197 97.699 28.7197C96.5431 28.7197 95.6063 27.7829 95.6063 26.627C95.6063 25.471 96.5431 24.5319 97.699 24.5319Z" fill="#053132"/>
<path d="M83.0429 15.9254C84.1989 15.9254 85.138 16.8621 85.138 18.0181C85.138 19.1741 84.1989 20.1108 83.0429 20.1108C81.8869 20.1108 80.9502 19.1741 80.9502 18.0181C80.9502 16.8621 81.8869 15.9254 83.0429 15.9254Z" fill="#053132"/>
<path d="M33.7827 55.0406C34.9386 55.0406 35.8777 55.9774 35.8777 57.1333C35.8777 58.2893 34.9386 59.2261 33.7827 59.2261C32.6267 59.2261 31.6899 58.2893 31.6899 57.1333C31.6899 55.9774 32.6267 55.0406 33.7827 55.0406Z" fill="#053132"/>
<path d="M51.3869 25.381C49.7603 25.381 48.3644 26.7746 48.3644 28.4059C48.3644 30.0326 49.7603 31.4285 51.3869 31.4285C53.0159 31.4285 54.4119 30.0326 54.4119 28.4059C54.1788 26.5439 53.0159 25.381 51.3869 25.381ZM51.3869 33.9873C48.129 33.9873 45.5725 31.4285 45.5725 28.1706C45.5725 24.9149 48.129 22.3561 51.3869 22.3561C54.6449 22.3561 57.2037 24.9149 57.2037 28.1706C57.2037 31.4285 54.6449 33.9873 51.3869 33.9873Z" fill="#053132"/>
<path d="M160.913 10.5046C164.637 10.5046 167.427 13.5295 167.427 17.0182C167.427 20.7422 164.404 23.5317 160.913 23.5317C157.424 23.5317 154.4 20.5068 154.4 17.0182C154.4 13.2965 157.191 10.5046 160.913 10.5046Z" fill="white"/>
<path d="M160.914 11.9006C158.122 11.9006 155.796 14.2264 155.796 17.0182C155.796 19.8101 158.122 22.1359 160.914 22.1359C163.705 22.1359 166.033 19.8101 166.033 17.0182C166.033 14.2264 163.705 11.9006 160.914 11.9006ZM160.914 24.9277C156.495 24.9277 153.004 21.4391 153.004 17.0182C153.004 12.5997 156.495 9.11105 160.914 9.11105C165.334 9.11105 168.823 12.5997 168.823 17.0182C168.823 21.4391 165.334 24.9277 160.914 24.9277Z" fill="#053132"/>
<path d="M1 8.77344C1 4.6313 4.35786 1.27344 8.5 1.27344H209.5C213.642 1.27344 217 4.6313 217 8.77344V128.773C217 130.706 215.433 132.273 213.5 132.273H4.49999C2.567 132.273 1 130.706 1 128.773V8.77344Z" stroke="#F2F4F7"/>
</svg>
