<svg width="218" height="132" viewBox="0 0 218 132" fill="none" xmlns="http://www.w3.org/2000/svg">
<path d="M1 8C1 3.85786 4.35786 0.5 8.5 0.5H209.5C213.642 0.5 217 3.85786 217 8V128C217 129.933 215.433 131.5 213.5 131.5H4.49999C2.567 131.5 1 129.933 1 128V8Z" fill="#FAFAFA"/>
<path d="M145.313 51.3333V111.678C145.313 114.753 142.887 117.179 139.814 117.179C137.387 117.179 72.3513 117.179 71.8651 117.179C68.7923 117.179 66.3661 114.753 66.3661 111.678V51.3333C70.4097 51.3333 142.563 51.3333 145.313 51.3333Z" fill="#E4E4E4"/>
<path d="M137.226 59.4221V108.928C133.503 108.928 74.6155 108.928 74.4551 108.928V59.4221H137.226Z" fill="white"/>
<path d="M114.899 64.6002V76.7327C114.899 76.7327 98.7215 76.7327 96.6178 76.7327V64.6002H114.899Z" fill="white"/>
<path d="M98.7213 45.3481H145.313V51.4954H98.7213V45.3481Z" fill="white"/>
<path d="M145.313 44.7014V45.348H98.7213V39.2007H139.814C142.887 39.2007 145.313 41.6269 145.313 44.7014Z" fill="white"/>
<path d="M133.665 24.1542C136.255 24.1542 138.195 26.2578 138.195 28.684C138.195 31.2739 136.093 33.2139 133.665 33.2139C131.239 33.2139 129.135 31.1102 129.135 28.684C129.135 26.0958 131.077 24.1542 133.665 24.1542Z" fill="white"/>
<path d="M114.899 64.6002H132.048V76.7327H114.899V64.6002Z" fill="white"/>
<path d="M125.901 109.09C123.15 113.942 117.974 117.179 111.987 117.179C107.457 117.179 103.576 115.399 100.501 112.487C99.5303 111.516 98.5595 110.383 97.9129 109.09C96.6179 106.662 95.8092 103.912 95.8092 101.001V93.8814C95.8092 92.426 97.1042 91.1311 98.5595 91.1311H101.796V88.0582V76.7328V76.0862C101.796 73.822 103.576 72.0425 105.84 72.0425C106.973 72.0425 107.943 72.5271 108.752 73.1738C109.399 73.9825 109.885 74.9533 109.885 76.0862V76.7328V87.572H128.165V101.001C128.004 103.912 127.356 106.662 125.901 109.09Z" fill="white"/>
<path d="M98.7216 51.3332H66.3661V44.7013C66.3661 41.6268 68.7923 39.2006 71.8651 39.2006H98.7216C98.7216 40.656 98.7216 49.8778 98.7216 51.3332Z" fill="white"/>
<path d="M79.4694 64.6002H96.6179V76.7327H79.4694V64.6002Z" fill="white"/>
<path d="M86.5871 43.2443C87.72 43.2443 88.6908 44.2151 88.6908 45.348C88.6908 46.4808 87.72 47.4516 86.5871 47.4516C85.4559 47.4516 84.4851 46.4808 84.4851 45.348C84.4851 44.2151 85.4559 43.2443 86.5871 43.2443Z" fill="#CDCDCD"/>
<path d="M80.6023 43.2443C81.7352 43.2443 82.706 44.2151 82.706 45.348C82.706 46.4808 81.7352 47.4516 80.6023 47.4516C79.4695 47.4516 78.4987 46.4808 78.4987 45.348C78.4987 44.2151 79.4695 43.2443 80.6023 43.2443Z" fill="#CDCDCD"/>
<path d="M77.5279 28.1994C79.1454 28.1994 80.6024 29.4927 80.6024 31.2738C80.6024 32.8913 79.3074 34.3467 77.5279 34.3467C75.7484 34.3467 74.4551 33.0518 74.4551 31.2738C74.4551 29.4927 75.9105 28.1994 77.5279 28.1994Z" fill="white"/>
<path d="M74.4547 43.2443C75.586 43.2443 76.5568 44.2151 76.5568 45.348C76.5568 46.4808 75.586 47.4516 74.4547 47.4516C73.3219 47.4516 72.3511 46.4808 72.3511 45.348C72.3511 44.2151 73.3219 43.2443 74.4547 43.2443Z" fill="#CDCDCD"/>
<path d="M145.313 52.4661H66.3662C65.88 52.4661 65.3954 51.9815 65.3954 51.4953C65.3954 51.0107 65.88 50.5245 66.3662 50.5245H145.313C145.8 50.5245 146.286 51.0107 146.286 51.4953C146.286 51.9815 145.8 52.4661 145.313 52.4661Z" fill="#CDCDCD"/>
<path d="M145.313 46.3188H98.7215C98.2353 46.3188 97.7507 45.8326 97.7507 45.348C97.7507 44.8618 98.2353 44.3772 98.7215 44.3772H145.313C145.799 44.3772 146.286 44.8618 146.286 45.348C146.286 45.8326 145.799 46.3188 145.313 46.3188Z" fill="#CDCDCD"/>
<path d="M98.7215 52.4661C98.2353 52.4661 97.7507 51.9815 97.7507 51.4953V39.3628C97.7507 38.8766 98.2353 38.392 98.7215 38.392C99.2061 38.392 99.6923 38.8766 99.6923 39.3628V51.4953C99.6923 51.9815 99.3682 52.4661 98.7215 52.4661Z" fill="#CDCDCD"/>
<path d="M71.8652 40.3335C69.439 40.3335 67.337 42.2735 67.337 44.8618V111.84C67.337 114.266 69.277 116.37 71.8652 116.37H139.814C142.241 116.37 144.344 114.428 144.344 111.84V44.7013C144.344 42.2735 142.403 40.1699 139.814 40.1699H71.8652V40.3335ZM139.814 118.15H71.8652C68.3078 118.15 65.3954 115.237 65.3954 111.678V44.7013C65.3954 41.1407 68.3078 38.2299 71.8652 38.2299H139.814C143.373 38.2299 146.286 41.1407 146.286 44.7013V111.678C146.286 115.237 143.373 118.15 139.814 118.15Z" fill="#CDCDCD"/>
<path d="M137.226 110.061H125.9C125.414 110.061 124.93 109.574 124.93 109.09C124.93 108.604 125.414 108.119 125.9 108.119H136.093V60.555H75.4256V108.119H97.9127C98.3973 108.119 98.8835 108.604 98.8835 109.09C98.8835 109.574 98.3973 110.059 97.9127 110.059H74.4548C73.9686 110.059 73.484 109.574 73.484 109.09V59.4221C73.484 58.9375 73.9686 58.4529 74.4548 58.4529H137.226C137.711 58.4529 138.195 58.9375 138.195 59.4221V108.928C138.195 109.574 137.711 110.061 137.226 110.061Z" fill="#CDCDCD"/>
<path d="M96.7801 77.7035H79.4695C78.9849 77.7035 78.4987 77.2189 78.4987 76.7327V64.6002C78.4987 64.114 78.9849 63.6294 79.4695 63.6294H96.618C97.1042 63.6294 97.5888 64.114 97.5888 64.6002C97.5888 65.0848 97.1042 65.571 96.618 65.571H80.4403V75.7635H96.618C97.1042 75.7635 97.5888 76.2481 97.5888 76.7327C97.5888 77.2189 97.2647 77.7035 96.7801 77.7035Z" fill="#CDCDCD"/>
<path d="M114.9 77.7035H109.885C109.399 77.7035 108.914 77.2189 108.914 76.7327C108.914 76.2481 109.399 75.7635 109.885 75.7635H114.9C115.384 75.7635 115.87 76.2481 115.87 76.7327C115.87 77.2189 115.546 77.7035 114.9 77.7035Z" fill="#CDCDCD"/>
<path d="M101.796 77.7035H96.78C96.2938 77.7035 95.8092 77.2189 95.8092 76.7327V64.6002C95.8092 64.114 96.2938 63.6294 96.78 63.6294H115.061C115.546 63.6294 116.032 64.114 116.032 64.6002C116.032 65.0848 115.546 65.571 115.061 65.571H97.7508V75.7635H101.796C102.281 75.7635 102.767 76.2481 102.767 76.7327C102.767 77.2189 102.281 77.7035 101.796 77.7035Z" fill="#CDCDCD"/>
<path d="M115.87 75.6015H131.077V65.4089H115.87V75.6015ZM132.048 77.7035H114.899C114.413 77.7035 113.929 77.2189 113.929 76.7327V64.6002C113.929 64.114 114.413 63.6294 114.899 63.6294H132.048C132.533 63.6294 133.019 64.114 133.019 64.6002V76.7327C133.181 77.2189 132.695 77.7035 132.048 77.7035Z" fill="#CDCDCD"/>
<path d="M101.796 100.353C101.31 100.353 100.825 99.8681 100.825 99.3835V91.131C100.825 90.6464 101.31 90.1618 101.796 90.1618C102.281 90.1618 102.767 90.6464 102.767 91.131V99.3835C102.767 100.03 102.441 100.353 101.796 100.353Z" fill="#CDCDCD"/>
<path d="M109.885 107.31C109.399 107.31 108.914 106.826 108.914 106.34V92.9121C108.914 92.4259 109.399 91.9413 109.885 91.9413C110.37 91.9413 110.856 92.4259 110.856 92.9121V106.34C110.856 106.826 110.532 107.31 109.885 107.31Z" fill="#CDCDCD"/>
<path d="M115.223 107.31C114.737 107.31 114.253 106.826 114.253 106.34V95.5004C114.253 95.0142 114.737 94.5279 115.223 94.5279C115.708 94.5279 116.194 95.0142 116.194 95.5004V106.34C116.355 106.826 115.87 107.31 115.223 107.31Z" fill="#CDCDCD"/>
<path d="M120.724 107.31C120.238 107.31 119.753 106.826 119.753 106.34V98.2507C119.753 97.7645 120.238 97.2782 120.724 97.2782C121.209 97.2782 121.695 97.7645 121.695 98.2507V106.34C121.695 106.826 121.209 107.31 120.724 107.31Z" fill="#CDCDCD"/>
<path d="M98.5594 92.1034C97.5886 92.1034 96.7798 92.9121 96.7798 93.8813V101.001C96.7798 103.589 97.4265 106.178 98.7214 108.604C99.3681 109.737 100.177 110.869 101.148 111.678C104.06 114.589 107.781 116.048 111.826 116.048C117.163 116.048 122.179 113.134 124.93 108.442C126.225 106.177 126.871 103.589 126.871 100.839V88.3807H109.885C109.399 88.3807 108.914 87.8961 108.914 87.4115V75.924C108.914 75.1153 108.59 74.3065 108.104 73.8219C107.619 73.1737 106.81 73.0116 106.002 73.0116C104.383 73.0116 102.927 74.3066 102.927 76.0861V91.131C102.927 91.6172 102.441 92.1034 101.956 92.1034H98.5594ZM111.987 118.15C107.457 118.15 103.089 116.37 99.8543 113.134C98.7214 112.001 97.9127 110.869 97.104 109.574C95.647 106.986 94.8383 104.075 94.8383 101.001V93.8813C94.8383 91.7792 96.4557 90.1618 98.5594 90.1618H100.825V76.0861C100.825 73.3358 103.089 71.0716 105.839 71.0716C107.134 71.0716 108.428 71.5562 109.399 72.527C110.369 73.4978 110.856 74.7928 110.856 76.0861V86.6028H128.004C128.489 86.6028 128.975 87.0873 128.975 87.5719V101.001C128.975 104.075 128.165 106.986 126.709 109.574C123.797 114.753 117.974 118.15 111.987 118.15Z" fill="#CDCDCD"/>
<path d="M168.822 45.3479C169.978 45.3479 170.917 46.2847 170.917 47.4406C170.917 48.5966 169.978 49.5334 168.822 49.5334C167.668 49.5334 166.729 48.5966 166.729 47.4406C166.729 46.2847 167.668 45.3479 168.822 45.3479Z" fill="#CDCDCD"/>
<path d="M123.753 17.9439C124.909 17.9439 125.848 18.8807 125.848 20.0367C125.848 21.1927 124.909 22.1295 123.753 22.1295C122.597 22.1295 121.66 21.1927 121.66 20.0367C121.66 18.8807 122.597 17.9439 123.753 17.9439Z" fill="#CDCDCD"/>
<path d="M97.699 23.7583C98.855 23.7583 99.7941 24.6974 99.7941 25.8534C99.7941 27.0094 98.855 27.9462 97.699 27.9462C96.5431 27.9462 95.6063 27.0094 95.6063 25.8534C95.6063 24.6974 96.5431 23.7583 97.699 23.7583Z" fill="#CDCDCD"/>
<path d="M83.0429 15.152C84.1989 15.152 85.138 16.0887 85.138 17.2447C85.138 18.4007 84.1989 19.3375 83.0429 19.3375C81.8869 19.3375 80.9502 18.4007 80.9502 17.2447C80.9502 16.0887 81.8869 15.152 83.0429 15.152Z" fill="#CDCDCD"/>
<path d="M33.7827 54.2674C34.9386 54.2674 35.8777 55.2042 35.8777 56.3601C35.8777 57.5161 34.9386 58.4529 33.7827 58.4529C32.6267 58.4529 31.6899 57.5161 31.6899 56.3601C31.6899 55.2042 32.6267 54.2674 33.7827 54.2674Z" fill="#CDCDCD"/>
<path d="M51.3869 24.6075C49.7603 24.6075 48.3644 26.0011 48.3644 27.6324C48.3644 29.2591 49.7603 30.655 51.3869 30.655C53.0159 30.655 54.4119 29.2591 54.4119 27.6324C54.1788 25.7704 53.0159 24.6075 51.3869 24.6075ZM51.3869 33.2138C48.129 33.2138 45.5725 30.655 45.5725 27.3971C45.5725 24.1414 48.129 21.5826 51.3869 21.5826C54.6449 21.5826 57.2037 24.1414 57.2037 27.3971C57.2037 30.655 54.6449 33.2138 51.3869 33.2138Z" fill="#CDCDCD"/>
<path d="M160.913 9.73118C164.637 9.73118 167.427 12.7561 167.427 16.2447C167.427 19.9688 164.404 22.7583 160.913 22.7583C157.424 22.7583 154.4 19.7334 154.4 16.2447C154.4 12.523 157.191 9.73118 160.913 9.73118Z" fill="white"/>
<path d="M160.914 11.1271C158.122 11.1271 155.796 13.4528 155.796 16.2447C155.796 19.0365 158.122 21.3624 160.914 21.3624C163.705 21.3624 166.033 19.0365 166.033 16.2447C166.033 13.4528 163.705 11.1271 160.914 11.1271ZM160.914 24.1542C156.495 24.1542 153.004 20.6655 153.004 16.2447C153.004 11.8262 156.495 8.33749 160.914 8.33749C165.334 8.33749 168.823 11.8262 168.823 16.2447C168.823 20.6655 165.334 24.1542 160.914 24.1542Z" fill="#CDCDCD"/>
<path d="M1 8C1 3.85786 4.35786 0.5 8.5 0.5H209.5C213.642 0.5 217 3.85786 217 8V128C217 129.933 215.433 131.5 213.5 131.5H4.49999C2.567 131.5 1 129.933 1 128V8Z" stroke="#F2F4F7"/>
</svg>
