<svg width="184" height="65" viewBox="0 0 184 65" fill="none" xmlns="http://www.w3.org/2000/svg">
<rect y="0.5" width="184" height="64" rx="8" fill="#FAFAFA"/>
<rect x="31.8636" y="9.72705" width="105.545" height="6.54545" rx="3.27273" fill="#E7E7E7"/>
<rect x="142.318" y="9.72705" width="9.81818" height="6.54545" rx="3.27273" fill="#E7E7E7"/>
<rect x="12" y="23.2725" width="160" height="32" rx="16" fill="white"/>
<path d="M42.8531 37.3398L43.0706 37.0456L42.8531 37.3398L46.8584 40.3002L45.2806 45.0243C45.1294 45.477 45.6458 45.8587 46.0343 45.5813L50.0875 42.6869L54.0928 45.6473C54.4766 45.931 54.9993 45.5578 54.8555 45.1026L53.3552 40.3534L57.4084 37.4589C57.7968 37.1816 57.6034 36.5692 57.1261 36.5652L52.1457 36.5245L50.6454 31.7753C50.5016 31.3201 49.8594 31.3149 49.7082 31.7676L48.1304 36.4916L43.15 36.4509C42.6727 36.447 42.4692 37.0561 42.8531 37.3398Z" fill="#FFF0B3" stroke="#FFD87E" stroke-width="0.731765"/>
<path d="M63.7953 37.3398L64.0128 37.0456L63.7953 37.3398L67.8006 40.3002L66.2228 45.0243C66.0716 45.477 66.5881 45.8587 66.9765 45.5813L71.0297 42.6869L75.035 45.6473C75.4189 45.931 75.9415 45.5578 75.7977 45.1026L74.2975 40.3534L78.3507 37.4589C78.7391 37.1816 78.5456 36.5692 78.0683 36.5652L73.0879 36.5245L71.5876 31.7753C71.4439 31.3201 70.8017 31.3149 70.6504 31.7676L69.0727 36.4916L64.0922 36.4509C63.6149 36.447 63.4115 37.0561 63.7953 37.3398Z" fill="#FFF0B3" stroke="#FFD87E" stroke-width="0.731765"/>
<path d="M84.7376 37.3398L84.9551 37.0456L84.7376 37.3398L88.7429 40.3002L87.1651 45.0243C87.0139 45.477 87.5304 45.8587 87.9188 45.5813L91.972 42.6869L95.9773 45.6473C96.3611 45.931 96.8838 45.5578 96.74 45.1026L95.2397 40.3534L99.2929 37.4589C99.6814 37.1816 99.4879 36.5692 99.0106 36.5652L94.0302 36.5245L92.5299 31.7753C92.3861 31.3201 91.7439 31.3149 91.5927 31.7676L90.0149 36.4916L85.0345 36.4509C84.5572 36.447 84.3537 37.0561 84.7376 37.3398Z" fill="#FFF0B3" stroke="#FFD87E" stroke-width="0.731765"/>
<path d="M105.68 37.3423L105.897 37.0481L105.68 37.3423L109.685 40.3027L108.107 45.0267C107.956 45.4795 108.473 45.8612 108.861 45.5838L112.914 42.6894L116.92 45.6497C117.303 45.9334 117.826 45.5602 117.682 45.1051L116.182 40.3558L120.235 37.4614C120.624 37.184 120.43 36.5716 119.953 36.5677L114.972 36.5269L113.472 31.7777C113.328 31.3225 112.686 31.3173 112.535 31.77L110.957 36.4941L105.977 36.4533C105.499 36.4494 105.296 37.0586 105.68 37.3423Z" fill="#FAFAFA" stroke="#F2F4F7" stroke-width="0.731765"/>
<path d="M126.622 37.3398L126.84 37.0456L126.622 37.3398L130.627 40.3002L129.05 45.0243C128.898 45.477 129.415 45.8587 129.803 45.5813L133.857 42.6869L137.862 45.6473C138.246 45.931 138.768 45.5578 138.625 45.1026L137.124 40.3534L141.177 37.4589C141.566 37.1816 141.372 36.5692 140.895 36.5652L135.915 36.5245L134.414 31.7753C134.271 31.3201 133.628 31.3149 133.477 31.7676L131.899 36.4916L126.919 36.4509C126.442 36.447 126.238 37.0561 126.622 37.3398Z" fill="#FAFAFA" stroke="#F2F4F7" stroke-width="0.731765"/>
</svg>
