<svg width="16" height="16" viewBox="0 0 16 16" fill="none" xmlns="http://www.w3.org/2000/svg">
<path d="M15.1771 8.33496C15.1771 8.83462 15.0542 9.29799 14.8086 9.72229C14.5629 10.1466 14.2344 10.4788 13.8203 10.7104C13.8317 10.7858 13.8374 10.903 13.8374 11.0622C13.8374 11.8186 13.5775 12.4606 13.0633 12.991C12.5463 13.5242 11.9236 13.7894 11.1952 13.7894C10.8696 13.7894 10.5582 13.7307 10.264 13.6135C10.0355 14.0713 9.70699 14.4398 9.27566 14.7217C8.8472 15.0064 8.37588 15.146 7.86458 15.146C7.34185 15.146 6.86768 15.0092 6.44493 14.7301C6.01932 14.4537 5.69368 14.0825 5.46517 13.6135C5.17095 13.7307 4.86246 13.7894 4.53397 13.7894C3.80557 13.7894 3.18001 13.5242 2.65728 12.991C2.13456 12.4606 1.87462 11.8158 1.87462 11.0622C1.87462 10.9784 1.88604 10.8612 1.90604 10.7104C1.49186 10.476 1.16336 10.1466 0.917711 9.72229C0.674913 9.29799 0.552086 8.83462 0.552086 8.33496C0.552086 7.80459 0.689195 7.3161 0.960557 6.87506C1.23192 6.43401 1.59754 6.10742 2.05457 5.89527C1.9346 5.57705 1.87462 5.25604 1.87462 4.93782C1.87462 4.18415 2.13456 3.53933 2.65728 3.00897C3.18001 2.4786 3.80557 2.21062 4.53397 2.21062C4.8596 2.21062 5.17095 2.26924 5.46517 2.38648C5.69368 1.92869 6.02217 1.56023 6.4535 1.2783C6.88196 0.996365 7.35328 0.854004 7.86458 0.854004C8.37588 0.854004 8.8472 0.996365 9.27566 1.27551C9.70413 1.55744 10.0355 1.9259 10.264 2.38369C10.5582 2.26645 10.8667 2.20783 11.1952 2.20783C11.9236 2.20783 12.5463 2.47302 13.0633 3.00617C13.5803 3.53933 13.8374 4.18135 13.8374 4.93503C13.8374 5.28675 13.7831 5.60497 13.6746 5.89248C14.1316 6.10463 14.4972 6.43122 14.7686 6.87226C15.04 7.3161 15.1771 7.80459 15.1771 8.33496ZM7.55323 10.4871L10.5725 6.06834C10.6496 5.9511 10.6725 5.8227 10.6468 5.68592C10.6182 5.54914 10.5468 5.44028 10.4268 5.3677C10.3068 5.29233 10.1754 5.26721 10.0355 5.28675C9.89265 5.30908 9.7784 5.37607 9.6927 5.49331L7.03335 9.40127L5.80794 8.20655C5.6994 8.10048 5.57371 8.05024 5.43375 8.05582C5.29092 8.0614 5.1681 8.11165 5.05955 8.20655C4.96243 8.30146 4.91387 8.42149 4.91387 8.56665C4.91387 8.70901 4.96243 8.82904 5.05955 8.92674L6.742 10.5709L6.82483 10.6351C6.92195 10.6993 7.02193 10.73 7.11905 10.73C7.31043 10.7272 7.45611 10.649 7.55323 10.4871Z" fill="#36C06E"/>
</svg>
