<svg width="50" height="50" viewBox="0 0 50 50" fill="none" xmlns="http://www.w3.org/2000/svg">
<g clip-path="url(#clip0_500_2007)">
<path d="M25.7228 13.8564H24.2764V14.785H25.7228V13.8564Z" fill="current"/>
<path d="M25 33.3562C24.0696 33.3562 23.3125 34.0853 23.3125 34.9812C23.3125 35.8771 24.0696 36.6062 25 36.6062C25.9304 36.6062 26.6875 35.8771 26.6875 34.9812C26.6875 34.0853 25.9304 33.3562 25 33.3562ZM25 35.6777C24.6012 35.6777 24.2768 35.3653 24.2768 34.9813C24.2768 34.5972 24.6012 34.2848 25 34.2848C25.3988 34.2848 25.7232 34.5972 25.7232 34.9813C25.7232 35.3653 25.3988 35.6777 25 35.6777Z" fill="current"/>
<path d="M32.9524 11.999H17.0473C15.7167 11.999 14.6338 13.0389 14.6338 14.317V35.681C14.6338 36.9591 15.7167 37.999 17.0473 37.999H32.9524C34.283 37.999 35.3659 36.9591 35.3659 35.681V14.317C35.3659 13.0389 34.283 11.999 32.9524 11.999ZM34.4016 35.681C34.4016 36.4472 33.7514 37.0705 32.9524 37.0705H17.0473C16.2483 37.0705 15.598 36.4473 15.598 35.681V14.317C15.598 13.5508 16.2483 12.9276 17.0473 12.9276H32.9523C33.7514 12.9276 34.4016 13.5507 34.4016 14.317L34.4016 35.681Z" fill="current"/>
</g>
<defs>
<clipPath id="clip0_500_2007">
<rect width="27" height="26" fill="white" transform="translate(11.5 12)"/>
</clipPath>
</defs>
</svg>
